<?xml version="1.0" encoding="UTF-8" standalone="no"?>
<!-- Created with Inkscape (http://www.inkscape.org/) -->

<svg
   xmlns:dc="http://purl.org/dc/elements/1.1/"
   xmlns:cc="http://creativecommons.org/ns#"
   xmlns:rdf="http://www.w3.org/1999/02/22-rdf-syntax-ns#"
   xmlns:svg="http://www.w3.org/2000/svg"
   xmlns="http://www.w3.org/2000/svg"
   xmlns:sodipodi="http://sodipodi.sourceforge.net/DTD/sodipodi-0.dtd"
   xmlns:inkscape="http://www.inkscape.org/namespaces/inkscape"
   width="7631.6099"
   height="5000"
   viewBox="0 0 7631.6102 5000.0001"
   id="svg10277"
   version="1.1"
   inkscape:version="0.91 r13725"
   sodipodi:docname="actinium.svg">
  <defs
     id="defs10279">
    <clipPath
       clipPathUnits="userSpaceOnUse"
       id="clipPath6441">
      <path
         sodipodi:nodetypes="ccccc"
         inkscape:connector-curvature="0"
         id="path6443"
         d="m 3855.8759,-1622.7873 c -38.7186,-18.3518 -37.5616,-55.491 -30.1337,-85.3578 -197.1984,235.727 179.371,257.5309 78.9232,63.5943 -23.1005,-35.7972 -33.1998,-81.2746 -7.4964,-114.2651 -74.2816,40.9667 -64.6938,104.1709 -41.2931,136.0286 z"
         style="fill:#972dc4;fill-opacity:1;fill-rule:evenodd;stroke:none;stroke-width:1px;stroke-linecap:butt;stroke-linejoin:miter;stroke-opacity:1" />
    </clipPath>
  </defs>
  <sodipodi:namedview
     id="base"
     pagecolor="#ffffff"
     bordercolor="#666666"
     borderopacity="1.0"
     inkscape:pageopacity="0.0"
     inkscape:pageshadow="2"
     inkscape:zoom="0.12374369"
     inkscape:cx="4650.9714"
     inkscape:cy="2837.9262"
     inkscape:document-units="px"
     inkscape:current-layer="layer1"
     showgrid="false"
     units="px"
     inkscape:window-width="2560"
     inkscape:window-height="1331"
     inkscape:window-x="77"
     inkscape:window-y="0"
     inkscape:window-maximized="0" />
  <metadata
     id="metadata10282">
    <rdf:RDF>
      <cc:Work
         rdf:about="">
        <dc:format>image/svg+xml</dc:format>
        <dc:type
           rdf:resource="http://purl.org/dc/dcmitype/StillImage" />
        <dc:title></dc:title>
      </cc:Work>
    </rdf:RDF>
  </metadata>
  <g
     inkscape:label="Layer 1"
     inkscape:groupmode="layer"
     id="layer1"
     transform="translate(0,3947.6378)">
    <rect
       style="opacity:1;fill:#bf55ec;fill-opacity:1;stroke:none;stroke-width:40;stroke-linecap:round;stroke-linejoin:round;stroke-miterlimit:4;stroke-dasharray:none;stroke-opacity:1"
       id="rect6343"
       width="7631.6099"
       height="5000"
       x="0"
       y="-3947.6379" />
    <path
       style="fill:#ffffff;fill-opacity:1;fill-rule:evenodd;stroke:none;stroke-width:3.07552767px;stroke-linecap:butt;stroke-linejoin:miter;stroke-opacity:1"
       d="m 1994.5263,-2076.6174 -457.4163,1219.33847 130.6903,0 140.9007,-375.73487 257.1952,0 -38.3076,-114.354 -176.0048,0 142.9425,-381.178 326.7259,871.26687 130.6903,0 z"
       id="path10825"
       inkscape:connector-curvature="0"
       sodipodi:nodetypes="ccccccccccc" />
    <circle
       style="opacity:1;fill:none;fill-opacity:1;stroke:#ffffff;stroke-width:101.96219635;stroke-linecap:round;stroke-linejoin:round;stroke-miterlimit:4;stroke-dasharray:none;stroke-opacity:1"
       id="path6345"
       cx="2808.3765"
       cy="-1202.952"
       r="289.05154" />
    <path
       style="opacity:1;fill:#bf55ec;fill-opacity:1;stroke:none;stroke-width:122.86000061;stroke-linecap:round;stroke-linejoin:round;stroke-miterlimit:4;stroke-dasharray:none;stroke-opacity:1"
       d="m 2832.3202,-1258.0401 442.6804,-397.553 -47.2765,786.51019 z"
       id="rect6347"
       inkscape:connector-curvature="0"
       sodipodi:nodetypes="cccc" />
    <g
       id="g6416"
       transform="matrix(1.1510364,0,0,1.1510364,-807.97064,214.84763)">
      <path
         sodipodi:open="true"
         d="M 3728.5901,-978.32768 A 273.84982,273.84982 0 0 1 3488.5618,-1250.0809"
         sodipodi:end="3.1415927"
         sodipodi:start="1.6946163"
         sodipodi:ry="273.84982"
         sodipodi:rx="273.84982"
         sodipodi:cy="-1250.0809"
         sodipodi:cx="3762.4116"
         sodipodi:type="arc"
         style="opacity:1;fill:none;fill-opacity:1;stroke:#ffffff;stroke-width:88.58255768;stroke-linecap:square;stroke-linejoin:round;stroke-miterlimit:4;stroke-dasharray:none;stroke-opacity:1"
         id="circle6350" />
      <path
         sodipodi:nodetypes="ccccc"
         inkscape:connector-curvature="0"
         id="rect6352"
         d="m 3444.2691,-1864.9275 88.5829,67.2105 0,510.2969 -88.5829,0 z"
         style="opacity:1;fill:#ffffff;fill-opacity:1;stroke:none;stroke-width:122.86000061;stroke-linecap:square;stroke-linejoin:round;stroke-miterlimit:4;stroke-dasharray:none;stroke-opacity:1" />
      <path
         sodipodi:nodetypes="ccccc"
         inkscape:connector-curvature="0"
         id="rect6354"
         d="m 3742.4541,-1637.9634 -56.0087,88.5829 -237.4689,0 0,-88.5829 z"
         style="opacity:1;fill:#ffffff;fill-opacity:1;stroke:none;stroke-width:122.86000061;stroke-linecap:square;stroke-linejoin:round;stroke-miterlimit:4;stroke-dasharray:none;stroke-opacity:1" />
      <path
         sodipodi:nodetypes="cccc"
         inkscape:connector-curvature="0"
         id="path6359"
         d="m 3591.3205,-820.79049 218.9825,-335.19771 -13.041,351.03931 z"
         style="fill:#bf55ec;fill-opacity:1;fill-rule:evenodd;stroke:none;stroke-width:1px;stroke-linecap:butt;stroke-linejoin:miter;stroke-opacity:1" />
    </g>
    <path
       sodipodi:nodetypes="ccccc"
       inkscape:connector-curvature="0"
       id="path6361"
       d="m 3597.2559,-1500.9014 101.9621,42.8305 0,584.33152 -101.9621,0 z"
       style="opacity:1;fill:#ffffff;fill-opacity:1;stroke:none;stroke-width:122.86000061;stroke-linecap:square;stroke-linejoin:round;stroke-miterlimit:4;stroke-dasharray:none;stroke-opacity:1" />
    <path
       style="opacity:1;fill:#ffffff;fill-opacity:1;stroke:none;stroke-width:122.86000061;stroke-linecap:square;stroke-linejoin:round;stroke-miterlimit:4;stroke-dasharray:none;stroke-opacity:1"
       d="m 4125.0026,-1572.3814 c -104.0806,-0.3717 -228.8516,48.209 -300.426,121.7027 0.1983,0.7102 0.4053,1.3918 0.6087,2.0837 l 0,574.85467 101.9626,0 0,-544.76857 c 78.6392,-51.5887 273.1778,-104.9682 273.1778,-1.7805 l 0,40.004 0,0.2639 0,503.24387 101.9626,0 0,-503.24387 0,-1.5644 0,-40.2221 c 0,-106.6767 -79.513,-150.2242 -177.2857,-150.5734 z"
       id="path6374"
       inkscape:connector-curvature="0" />
    <path
       style="opacity:1;fill:#ffffff;fill-opacity:1;stroke:none;stroke-width:122.86000061;stroke-linecap:square;stroke-linejoin:round;stroke-miterlimit:4;stroke-dasharray:none;stroke-opacity:1"
       d="m 4525.8404,-1492.6797 -101.9622,34.6088 0,584.33152 101.9622,0 z"
       id="path6380"
       inkscape:connector-curvature="0"
       sodipodi:nodetypes="ccccc" />
    <path
       id="path6396"
       d="m 4831.3512,-857.58001 c 104.0806,0.37177 228.8515,-48.20906 300.426,-121.70263 -0.1982,-0.7102 -0.4053,-1.392 -0.6087,-2.0838 l 0,-499.98586 -101.9626,-44.3346 0,514.2343 c -78.6391,51.58886 -273.1779,104.96832 -273.1779,1.7805 l 0,-40.0039 0,-0.264 0,-437.3238 -101.9626,-35.3857 0,472.7095 0,1.5644 0,40.2221 c 0,106.67675 79.513,150.22429 177.2858,150.57349 z"
       style="opacity:1;fill:#ffffff;fill-opacity:1;stroke:none;stroke-width:122.86000061;stroke-linecap:square;stroke-linejoin:round;stroke-miterlimit:4;stroke-dasharray:none;stroke-opacity:1"
       inkscape:connector-curvature="0"
       sodipodi:nodetypes="scccccsccccccss" />
    <path
       id="path6398"
       d="m 5539.0015,-1572.3813 c -104.0805,-0.3718 -228.8514,48.2089 -300.426,121.7026 0.1983,0.7102 0.4053,1.392 0.6087,2.0837 l 0,574.85467 101.9626,0 0,-544.76847 c 78.6392,-51.5888 273.178,-104.9683 273.178,-1.7806 l 0,40.004 0,0.2639 0,503.24387 101.9626,0 0,-503.24387 0,-1.5644 0,-40.222 c 0,-106.6767 -79.5132,-150.2243 -177.2859,-150.5734 z"
       style="opacity:1;fill:#ffffff;fill-opacity:1;stroke:none;stroke-width:122.86000061;stroke-linecap:square;stroke-linejoin:round;stroke-miterlimit:4;stroke-dasharray:none;stroke-opacity:1"
       inkscape:connector-curvature="0" />
    <path
       inkscape:connector-curvature="0"
       style="opacity:1;fill:#ffffff;fill-opacity:1;stroke:none;stroke-width:122.86000061;stroke-linecap:square;stroke-linejoin:round;stroke-miterlimit:4;stroke-dasharray:none;stroke-opacity:1"
       d="m 5917.2141,-1572.3813 c -104.0806,-0.3718 -228.8516,48.2089 -300.426,121.7026 0.1982,0.7102 0.4053,1.392 0.6086,2.0837 l 0,574.85467 101.9627,0 0,-544.76847 c 78.6391,-51.5888 273.1779,-104.9683 273.1779,-1.7806 l 0,40.004 0,0.2639 0,503.24387 101.9626,0 0,-503.24387 0,-1.5644 0,-40.222 c 0,-106.6767 -79.5131,-150.2243 -177.2858,-150.5734 z"
       id="path6400" />
    <path
       style="fill:#972dc4;fill-opacity:1;fill-rule:evenodd;stroke:none;stroke-width:1px;stroke-linecap:butt;stroke-linejoin:miter;stroke-opacity:1"
       d="m 4481.4138,-1854.598 c -93.6474,-44.3869 -90.849,-134.2141 -72.8833,-206.452 -476.9572,570.1449 433.8385,622.8814 190.8888,153.8134 -55.8725,-86.5815 -80.2992,-196.576 -18.1313,-276.3692 -179.6625,99.0848 -156.4728,251.9547 -99.8742,329.0078 z"
       id="path6424"
       inkscape:connector-curvature="0"
       sodipodi:nodetypes="ccccc" />
    <path
       style="fill:#830fa6;fill-opacity:1;fill-rule:evenodd;stroke:none;stroke-width:1px;stroke-linecap:butt;stroke-linejoin:miter;stroke-opacity:1"
       d="m 3800.9763,-1559.8673 c 28.8559,51.2695 86.6663,27.563 92.648,-5.3824 8.53,-46.9808 -37.6831,-69.7857 -29.628,-117.1936 -51.2577,23.6923 -80.9405,90.7359 -63.02,122.576 z"
       id="path6429"
       inkscape:connector-curvature="0"
       sodipodi:nodetypes="sscs"
       clip-path="url(#clipPath6441)"
       transform="matrix(2.4186665,0,0,2.4186665,-4844.6641,2070.3831)" />
  </g>
</svg>
