<svg xmlns="http://www.w3.org/2000/svg" viewBox="0 0 7631.61 5000.0002" height="5000" width="7631.61"><defs><clipPath id="a"><path fill="#b7d8f0" stroke-width="10" d="M241.277-927.828h4877.04v1625.69H241.277z"/></clipPath><clipPath id="b"><path d="M1470.507-1642.65h482.154v-3035.423s2.953-538.12-482.467-538.12c-485.42 0-482.468 538.12-482.468 538.12v3035.423h482.155" fill="#5a2c14" fill-rule="evenodd" stroke-width=".987"/></clipPath><clipPath id="k"><path d="M1474.934-1633.954h494.647l-4.42-3076.47s3.03-552.06-494.967-552.06c-497.995 0-494.968 552.06-494.968 552.06l4.42 3076.47h494.646" clip-path="url(#b)" fill="#5a2c14" fill-rule="evenodd" stroke-width=".987"/></clipPath><clipPath id="j"><path d="M1474.934-1633.954h494.647l-4.42-3076.47s3.03-552.06-494.967-552.06c-497.995 0-494.968 552.06-494.968 552.06l4.42 3076.47h494.646" clip-path="url(#b)" fill="#5a2c14" fill-rule="evenodd" stroke-width=".987"/></clipPath><clipPath id="i"><path d="M1474.934-1633.954h494.647l-4.42-3076.47s3.03-552.06-494.967-552.06c-497.995 0-494.968 552.06-494.968 552.06l4.42 3076.47h494.646" clip-path="url(#b)" fill="#5a2c14" fill-rule="evenodd" stroke-width=".987"/></clipPath><clipPath id="h"><path d="M1474.934-1633.954h494.647l-4.42-3076.47s3.03-552.06-494.967-552.06c-497.995 0-494.968 552.06-494.968 552.06l4.42 3076.47h494.646" clip-path="url(#b)" fill="#5a2c14" fill-rule="evenodd" stroke-width=".987"/></clipPath><clipPath id="e"><path d="M1474.934-1633.954h494.647l-4.42-3076.47s3.03-552.06-494.967-552.06c-497.995 0-494.968 552.06-494.968 552.06l4.42 3076.47h494.646" clip-path="url(#b)" fill="#5a2c14" fill-rule="evenodd" stroke-width=".987"/></clipPath><clipPath id="f"><path style="line-height:normal;text-indent:0;text-align:start;text-decoration-line:none;text-decoration-style:solid;text-decoration-color:#000;text-transform:none;block-progression:tb;isolation:auto;mix-blend-mode:normal" d="M1465.246-1973.22c-48.962.934-87.91 41.36-87.02 90.323l5.256 1224.766c.24 55.87 34.894 101.45 88.364 101.646 53.47.196 85.67-47.716 85.46-100.08 0 0-.01-819.646-1.644-1227.045.507-50.015-40.407-90.565-90.416-89.61z" color="#000" font-weight="400" font-family="sans-serif" white-space="normal" overflow="visible" fill="#f5b398" fill-rule="evenodd" stroke-width="177.438" stroke-linecap="round"/></clipPath><clipPath id="l"><path d="M1855.346-1641.465c-89.816-.34-66.844 131.717-38.61 186.38 23.854 46.18 7.543 129.99-65.125 129.99-72.084 0-80.53-87.096-66.687-126.146 14.06-39.666 66.368-189.832-12.146-190.324l72.286-68.458z" fill="#f62459" fill-rule="evenodd"/></clipPath><clipPath id="c"><path d="M3041.22-2822.157L3484.112-714.83c21.876 100.372 114.663 107.45 141.29-.27l453.562-2107.056z" fill="#ffcb8a" fill-rule="evenodd"/></clipPath><clipPath id="d"><path d="M3041.22 3745.77l442.893 2107.33c21.876 100.37 114.663 107.447 141.29-.27l453.563-2107.058z" fill="#ffcb8a" fill-rule="evenodd"/></clipPath><clipPath id="m"/><clipPath id="n"><path d="M851.623-587.407c-26.918-26.683 20.114-73.99 83.743-73.414 70.164.634 119.938 48.856 85.24 72.76-30.702 21.15-147.864 21.586-168.983.653z" fill="#f62459" fill-rule="evenodd"/></clipPath><clipPath id="o"><circle cx="7303.469" cy="-3901.682" r="617.527" fill="#ecf0f1" stroke-width="25" stroke-linecap="round" stroke-linejoin="round"/></clipPath><clipPath id="p"><path d="M12151.473-4387.383c-167.483 0-265.498 106.593-267.725 272.28v1872.235h1192.333v-1669.185a196.023 196.023 0 0 1-25.02 1.804 196.023 196.023 0 0 1-196.025-196.02 196.023 196.023 0 0 1 .67-13.36 196.023 196.023 0 0 1-11.766.415 196.023 196.023 0 0 1-196.022-196.024 196.023 196.023 0 0 1 13.822-72.143h-510.266z" fill="#532309" fill-rule="evenodd"/></clipPath><clipPath id="g"><path style="line-height:normal;text-indent:0;text-align:start;text-decoration-line:none;text-decoration-style:solid;text-decoration-color:#000;text-transform:none;block-progression:tb;isolation:auto;mix-blend-mode:normal" d="M599.342-2624.403c-54.014 1.032-96.98 45.628-95.997 99.643l5.798 1351.122c.264 61.634 38.493 111.916 97.48 112.133 58.986.217 94.51-52.64 94.277-110.405 0 0-.01-904.207-1.814-1353.636.56-55.176-44.575-99.91-99.744-98.857z" color="#000" font-weight="400" font-family="sans-serif" white-space="normal" overflow="visible" fill="#f5b398" fill-rule="evenodd" stroke-width="177.438" stroke-linecap="round"/></clipPath><clipPath id="q"><path d="M4294.002-4587.91s16.432-135.87 93.137-136.66c71.758-.74 53.895 85.505 6.723 84.88-89.432-1.185-99.86 51.78-99.86 51.78z" fill="#532309" fill-rule="evenodd"/></clipPath></defs><g transform="translate(0 3947.638)"><path fill="#00b16a" d="M-2679.308-16802.07h12828.73v8384.94H-2679.31z"/><path d="M7023.88-14579.434c-1.08-44.954 21.254-169.06 125.03-174.402" fill="none" stroke="#00753b" stroke-width="20" stroke-linecap="round"/><path d="M10191.487-9745.644a15.43 3.858 0 0 1-15.43 3.858v-3.858z" fill="#79a1ff"/><path transform="translate(-1131.94 -9791.602)" clip-path="url(#e)" d="M1470.515-3835.068h494.646v-875.356s3.03-552.06-494.967-552.06c-497.995 0-494.968 552.06-494.968 552.06v875.356h494.647" fill="#ecf0f1" fill-rule="evenodd"/><g fill-rule="evenodd"><path style="line-height:normal;text-indent:0;text-align:start;text-decoration-line:none;text-decoration-style:solid;text-decoration-color:#000;text-transform:none;block-progression:tb;isolation:auto;mix-blend-mode:normal" d="M333.047-11767.192c-54.014 1.03-96.98 45.628-95.997 99.643l5.798 1351.123c.265 61.634 38.493 111.916 97.48 112.133 58.986.217 94.51-52.64 94.277-110.405 0 0-.01-904.206-1.814-1353.635.56-55.176-44.574-99.91-99.743-98.857z" color="#000" font-weight="400" font-family="sans-serif" white-space="normal" overflow="visible" fill="#f5b398"/><path d="M1467.455-1685.138v1243.75l-606.25-231.25 431.25-1112.5z" clip-path="url(#f)" transform="matrix(1.10317 0 0 1.10317 -1283.365 -9590.398)" fill="#e19f84"/><path d="M564.896-2202.688l168.33-42.61-14.03-83.874-154.3-2.615z" clip-path="url(#g)" fill="#e19f84" transform="translate(-266.295 -9142.79)"/></g><path transform="translate(-1131.94 -9791.602)" clip-path="url(#h)" d="M1472.31-1577.19h494.974v-2496.972s3.03-552.427-495.297-552.427c-498.326 0-495.296 552.428-495.296 552.428v2496.97h494.976" fill="none"/><path transform="translate(-1131.94 -9791.602)" clip-path="url(#i)" fill="#bccce0" d="M707.107-3838.086h1781.025v1354.905H707.107z"/><rect transform="translate(-1131.94 -9791.602)" ry="0" rx="0" clip-path="url(#j)" y="-2736.033" x="976.691" height="1145.572" width="989.95" fill="#f62459"/><path transform="translate(-1131.94 -9791.602)" clip-path="url(#k)" d="M1468.75-5291.388v3906.25l-812.5-87.5 100-4050z" fill="#000020" fill-opacity=".099" fill-rule="evenodd"/><path d="M723.406-11433.067c-89.816-.34-66.844 131.717-38.61 186.38 23.854 46.18 7.544 129.99-65.125 129.99-72.083 0-80.528-87.096-66.687-126.146 14.06-39.664 66.37-189.83-12.146-190.322l72.287-68.46z" fill="#f62459" fill-rule="evenodd"/><path transform="translate(-1131.94 -9791.602)" clip-path="url(#l)" d="M1714.82-1561.61c15.675 90.77-9.054 189.892 103.93 215.534l-115.625 67.188-95.313-184.375z" fill="#ce1e50" fill-rule="evenodd"/><path d="M501.018-14841.598s176.805 67.337 186.284 374.428c8.065 261.263.626 519.924.626 519.924" fill="none" stroke="#fff" stroke-width="66.012" stroke-linecap="round"/><circle cx="7029.777" cy="-13838.222" r="617.527" fill="#5e2d14"/><circle r="617.527" cy="-13044.472" cx="7037.174" fill="#ecf0f1"/><path d="M6519.98-12686.76l442.894 2107.33c21.876 100.37 114.663 107.448 141.29-.27l453.562-2107.058z" fill="#ffcb8a" fill-rule="evenodd"/><g transform="translate(3478.76 -9864.602)" clip-path="url(#c)" stroke="#e1a56c" stroke-width="35" fill="none"><path d="M3279.57-2808.587v1895.93M3553.21-2814.628v2267.16M3826.85-2799.748v2258.322M4129.945-2520.737h-1131.37M4129.945-2206.96h-1131.37M4129.945-1893.18h-1131.37M4129.945-1561.724h-1131.37M4129.945-1230.267h-1131.37M4129.945-938.586h-1131.37"/></g><path clip-path="url(#d)" transform="translate(3478.76 -16432.53)" d="M3160.197 3503.21a256.326 256.326 0 0 0-256.326 256.327 256.326 256.326 0 0 0 180.288 244.502c19.488 74.46 2.673 128.76-6.467 154.542-13.84 39.05-5.395 126.147 66.69 126.147 72.667 0 88.98-83.812 65.126-129.992-17.995-34.838-21.153-100.467-2.686-143.408a256.326 256.326 0 0 0 156.584-96.08 256.326 256.326 0 0 0 203.38 100.613 256.326 256.326 0 0 0 198.872-94.812 256.326 256.326 0 0 0 198.875 94.813 256.326 256.326 0 0 0 256.327-256.326 256.326 256.326 0 0 0-256.326-256.326 256.326 256.326 0 0 0-198.872 94.913 256.326 256.326 0 0 0-198.875-94.912 256.326 256.326 0 0 0-203.21 100.616 256.326 256.326 0 0 0-203.376-100.615z" fill-opacity=".094"/><circle r="256.326" cy="-12754.36" cx="6638.958" fill="#ecf0f1"/><circle cx="7045.544" cy="-12754.36" r="256.326" fill="#ecf0f1"/><circle r="256.326" cy="-12754.36" cx="7443.292" fill="#ecf0f1"/><path d="M6680.2-12503.292c-71.067-.34-79.345 130.154-51.11 184.818 23.852 46.18 7.542 129.99-65.126 129.99-72.085 0-80.53-87.097-66.69-126.147 14.06-39.665 46.326-146.794-63.44-291.036l142.332 32.254z" fill="#ecf0f1" fill-rule="evenodd"/><circle cx="6631.561" cy="-13548.11" r="256.326" fill="#5e2d14"/><circle r="256.326" cy="-13548.11" cx="7038.148" fill="#5e2d14"/><circle cx="7435.895" cy="-13548.11" r="256.326" fill="#5e2d14"/><circle r="31.383" cy="-14246.755" cx="7232.11" fill="#ecf0f1"/><ellipse transform="rotate(-68.44)" ry="31.383" rx="31.383" cx="15771.821" cy="1117.399" fill="#ffbd00"/><ellipse transform="rotate(56.833)" ry="31.383" rx="31.383" cx="-8100.875" cy="-13273.093" fill="#be2ad4"/><ellipse transform="rotate(54.493)" ry="31.383" rx="31.383" cx="-7359.111" cy="-13416.089" fill="#00b7d2"/><ellipse transform="rotate(-66.92)" ry="31.383" rx="31.383" cx="15386.516" cy="1507.966" fill="#00b7d2"/><circle transform="rotate(-148.344)" cx="1121.562" cy="15573.203" r="31.383" fill="#be2ad4"/><circle transform="rotate(137.698)" cx="-14455.196" cy="5627.631" r="31.383" fill="#45c059"/><ellipse transform="rotate(102.874)" ry="31.383" rx="31.383" cx="-14693.404" cy="-3450.983" fill="#ecf0f1"/><ellipse transform="rotate(-103.497)" ry="31.383" rx="31.383" cx="11658.135" cy="9877.289" fill="#f62459"/><ellipse transform="rotate(-105.584)" ry="31.383" rx="31.383" cx="11141.683" cy="10506.272" fill="#45c059"/><ellipse transform="rotate(-56.55)" ry="31.383" rx="31.383" cx="15804.607" cy="-1572.222" fill="#00b7d2"/><circle transform="rotate(7.755)" cx="5130.255" cy="-14940.269" r="31.383" fill="#f62459"/><circle transform="rotate(-147.577)" cx="1102.556" cy="15615.961" r="31.383" fill="#ffbd00"/><path transform="translate(3477.693 -9864.602)" clip-path="url(#m)" d="M3551.526-590.023v-4126.883l-999.03 308.6s78.457 3561.988 104.61 3593.37c26.153 31.384 894.42 224.913 894.42 224.913z" fill-opacity=".083" fill-rule="evenodd"/><ellipse ry="129.572" rx="669.507" cy="-9659.584" cx="337.382" fill="#009d56"/><ellipse cx="7010.847" cy="-9659.584" rx="669.507" ry="129.572" fill="#009d56"/><circle r="108.944" cy="-14476.897" cx="7022.89" fill="#c21423"/><path d="M7022.89-14367.954a108.944 108.944 0 0 1-94.348-54.472 108.944 108.944 0 0 1 0-108.943 108.944 108.944 0 0 1 94.348-54.47v108.943z" fill="#ae000f"/><path d="M526.152-9730.197c-26.918-26.682 20.113-73.988 83.743-73.413 70.163.635 119.937 48.857 85.24 72.76-30.702 21.15-147.864 21.587-168.983.654z" fill="#f62459" fill-rule="evenodd"/><path transform="translate(-325.47 -9142.79)" clip-path="url(#n)" d="M904.88-663.25c-40.27 59.454 14.475 82.565 94.15 91.534l-188.3 2.615 26.154-99.38z" fill="#ce1e50" fill-rule="evenodd"/><path transform="translate(-266.295 -9142.79)" clip-path="url(#o)" d="M6897.855-4567.498a256.326 256.326 0 0 0-256.326 256.326 256.326 256.326 0 0 0 256.325 256.326 256.326 256.326 0 0 0 203.293-100.725 256.326 256.326 0 0 0 203.293 100.724 256.326 256.326 0 0 0 198.835-94.858 256.326 256.326 0 0 0 198.914 94.858 256.326 256.326 0 0 0 256.325-256.326A256.326 256.326 0 0 0 7702.19-4567.5a256.326 256.326 0 0 0-198.835 94.86 256.326 256.326 0 0 0-198.914-94.858 256.326 256.326 0 0 0-203.292 100.496 256.326 256.326 0 0 0-203.293-100.496z" fill="#5e2d14" fill-opacity=".094"/><path style="line-height:normal;text-indent:0;text-align:start;text-decoration-line:none;text-decoration-style:solid;text-decoration-color:#000;text-transform:none;block-progression:tb;isolation:auto;mix-blend-mode:normal" d="M3345.83-12157.333c-54.014 1.03-96.98 45.628-95.998 99.643l5.798 1351.12c.265 61.636 38.493 111.918 97.48 112.135 58.986.216 94.51-52.64 94.277-110.405 0 0-.01-904.207-1.814-1353.637.56-55.176-44.575-99.91-99.744-98.856z" color="#000" font-weight="400" font-family="sans-serif" white-space="normal" overflow="visible" fill="#f5b398" fill-rule="evenodd"/><path d="M1467.455-1685.138v1243.75l-606.25-231.25 431.25-1112.5z" clip-path="url(#f)" transform="matrix(1.10317 0 0 1.10317 1729.417 -9980.54)" fill="#e19f84" fill-rule="evenodd"/><path transform="translate(2746.487 -9233.35)" d="M564.896-2202.688l168.33-42.61-14.03-83.874-154.3-2.615z" clip-path="url(#g)" fill="#e19f84" fill-rule="evenodd"/><path d="M3230.595-13667.345c-167.482 0-265.497 106.593-267.724 272.28v1872.236H4155.202v-1669.185a196.023 196.023 0 0 1-25.02 1.805 196.023 196.023 0 0 1-196.025-196.022 196.023 196.023 0 0 1 .67-13.36 196.023 196.023 0 0 1-11.766.415 196.023 196.023 0 0 1-196.02-196.023 196.023 196.023 0 0 1 13.822-72.145H3230.594zM4027.708-13542.4s16.432-135.87 93.137-136.66c71.76-.74 53.896 85.505 6.724 84.88-89.433-1.185-99.862 51.78-99.862 51.78z" fill="#532309" fill-rule="evenodd"/><g fill-rule="evenodd"><path style="line-height:normal;text-indent:0;text-align:start;text-decoration-line:none;text-decoration-style:solid;text-decoration-color:#000;text-transform:none;block-progression:tb;isolation:auto;mix-blend-mode:normal" d="M3763.764-12157.333c-54.013 1.03-96.978 45.628-95.997 99.643l5.798 1351.12c.265 61.636 38.493 111.918 97.48 112.135 58.986.216 94.51-52.64 94.277-110.405 0 0-.01-904.207-1.814-1353.637.56-55.176-44.575-99.91-99.744-98.856z" color="#000" font-weight="400" font-family="sans-serif" white-space="normal" overflow="visible" fill="#f5b398"/><path d="M1467.455-1685.138v1243.75l-606.25-231.25 431.25-1112.5z" clip-path="url(#f)" transform="matrix(1.10317 0 0 1.10317 2147.352 -9980.54)" fill="#e19f84"/><path transform="translate(3164.422 -9233.35)" d="M564.896-2202.688l168.33-42.61-14.03-83.874-154.3-2.615z" clip-path="url(#g)" fill="#e19f84"/></g><path transform="translate(-8920.877 -9279.962)" clip-path="url(#p)" d="M12290.08-4387.383c-167.482 0-265.497 106.593-267.724 272.28v1872.235h1192.331v-1669.185a196.023 196.023 0 0 1-25.02 1.804 196.023 196.023 0 0 1-196.025-196.02 196.023 196.023 0 0 1 .67-13.36 196.023 196.023 0 0 1-11.766.415 196.023 196.023 0 0 1-196.02-196.024 196.023 196.023 0 0 1 13.82-72.143H12290.08z" fill="#5d2d13" fill-rule="evenodd"/><path transform="translate(-266.295 -8954.49)" clip-path="url(#q)" d="M4320.155-4587.91s16.432-135.87 93.137-136.66c71.76-.74 53.896 85.505 6.724 84.88-89.432-1.185-99.86 51.78-99.86 51.78z" fill="#5d2d13" fill-rule="evenodd"/><ellipse ry="129.572" rx="669.507" cy="-9659.584" cx="3548.24" fill="#009d56"/><path d="M7367.678-9730.197c-26.918-26.682 20.114-73.988 83.743-73.413 70.164.635 119.94 48.857 85.24 72.76-30.7 21.15-147.863 21.587-168.982.654z" fill="#ecf0f1" fill-rule="evenodd"/><path d="M904.88-663.25c-40.27 59.454 14.475 82.565 94.15 91.534l-188.3 2.615 26.154-99.38z" clip-path="url(#n)" transform="translate(6516.055 -9142.79)" fill="#d9dcdd" fill-rule="evenodd"/><path d="M7577.632-9726.9c-17.956-17.8 13.417-49.356 55.864-48.972 46.804.423 80.008 32.59 56.86 48.536-20.48 14.11-98.636 14.4-112.724.436z" fill="#ecf0f1" fill-rule="evenodd"/><path transform="translate(7009.53 -9335.05) scale(.66708)" clip-path="url(#n)" d="M904.88-663.25c-40.27 59.454 14.475 82.565 94.15 91.534l-188.3 2.615 26.154-99.38z" fill="#d9dcdd" fill-rule="evenodd"/><text y="-6085.818" x="2773.904" style="line-height:125%" font-weight="400" font-size="40" font-family="sans-serif" letter-spacing="0" word-spacing="0"/><path fill="#00b16a" d="M14.794-3947.638h7631.61v5000H14.795z"/><path d="M3783.105-3025.953c-.66-27.47 12.988-103.31 76.402-106.572" fill="none" stroke="#00753b" stroke-width="12.221" stroke-linecap="round"/><path d="M5503.622 119.998a8.383 2.096 0 0 1-8.383 2.095v-2.095z" fill="#79a1ff"/><circle r="377.353" cy="-2573.019" cx="3786.709" fill="#5e2d14"/><circle cx="3791.229" cy="-2087.981" r="377.353" fill="#ecf0f1"/><path d="M3475.186-1869.393l270.64 1287.73c13.368 61.333 70.068 65.658 86.34-.166l277.158-1287.562z" fill="#ffcb8a" fill-rule="evenodd"/><g clip-path="url(#c)" transform="translate(1616.783 -144.852) scale(.61107)" stroke="#e1a56c" stroke-width="35" fill="none"><path d="M3279.57-2808.587v1895.93M3553.21-2814.628v2267.16M3826.85-2799.748v2258.322M4129.945-2520.737h-1131.37M4129.945-2206.96h-1131.37M4129.945-1893.18h-1131.37M4129.945-1561.724h-1131.37M4129.945-1230.267h-1131.37M4129.945-938.586h-1131.37"/></g><path d="M3160.197 3503.21a256.326 256.326 0 0 0-256.326 256.327 256.326 256.326 0 0 0 180.288 244.502c19.488 74.46 2.673 128.76-6.467 154.542-13.84 39.05-5.395 126.147 66.69 126.147 72.667 0 88.98-83.812 65.126-129.992-17.995-34.838-21.153-100.467-2.686-143.408a256.326 256.326 0 0 0 156.584-96.08 256.326 256.326 0 0 0 203.38 100.613 256.326 256.326 0 0 0 198.872-94.812 256.326 256.326 0 0 0 198.875 94.813 256.326 256.326 0 0 0 256.327-256.326 256.326 256.326 0 0 0-256.326-256.326 256.326 256.326 0 0 0-198.872 94.913 256.326 256.326 0 0 0-198.875-94.912 256.326 256.326 0 0 0-203.21 100.616 256.326 256.326 0 0 0-203.376-100.615z" transform="translate(1616.783 -4158.328) scale(.61107)" clip-path="url(#d)" fill-opacity=".094"/><circle cx="3547.891" cy="-1910.702" r="156.634" fill="#ecf0f1"/><circle r="156.634" cy="-1910.702" cx="3796.344" fill="#ecf0f1"/><circle cx="4039.396" cy="-1910.702" r="156.634" fill="#ecf0f1"/><path d="M3573.09-1757.282c-43.425-.207-48.484 79.534-31.23 112.937 14.576 28.22 4.61 79.433-39.797 79.433-44.048 0-49.21-53.222-40.75-77.084 8.59-24.238 28.307-89.7-38.767-177.843l86.974 19.71z" fill="#ecf0f1" fill-rule="evenodd"/><circle r="156.634" cy="-2395.74" cx="3543.371" fill="#5e2d14"/><circle cx="3791.824" cy="-2395.74" r="156.634" fill="#5e2d14"/><circle r="156.634" cy="-2395.74" cx="4034.876" fill="#5e2d14"/><circle cx="3910.349" cy="-2822.663" r="19.177" fill="#ecf0f1"/><ellipse cy="2371.223" cx="3979.135" rx="19.177" ry="19.177" transform="rotate(-68.44)" fill="#ffbd00"/><ellipse cy="-4466.233" cx="-304.002" rx="19.177" ry="19.177" transform="rotate(56.833)" fill="#be2ad4"/><ellipse cy="-4366.908" cx="-3.449" rx="19.177" ry="19.177" transform="rotate(54.493)" fill="#00b7d2"/><ellipse cy="2759.571" cx="3790.522" rx="19.177" ry="19.177" transform="rotate(-66.92)" fill="#00b7d2"/><circle r="19.177" cy="4241.42" cx="-1968.967" transform="rotate(-148.344)" fill="#be2ad4"/><circle r="19.177" cy="-569.773" cx="-4497.162" transform="rotate(137.698)" fill="#45c059"/><ellipse cy="-2923.447" cx="-3130.083" rx="19.177" ry="19.177" transform="rotate(102.874)" fill="#ecf0f1"/><ellipse cy="4167.684" cx="1522.113" rx="19.177" ry="19.177" transform="rotate(-103.497)" fill="#f62459"/><ellipse cy="4349.288" cx="1278.264" rx="19.177" ry="19.177" transform="rotate(-105.584)" fill="#45c059"/><ellipse cy="1857.338" cx="4468.463" rx="19.177" ry="19.177" transform="rotate(-56.55)" fill="#00b7d2"/><circle r="19.177" cy="-3231.572" cx="3424.434" transform="rotate(7.755)" fill="#f62459"/><circle r="19.177" cy="4303.555" cx="-2050.96" transform="rotate(-147.577)" fill="#ffbd00"/><path d="M3551.526-590.023v-4126.883l-999.03 308.6s78.457 3561.988 104.61 3593.37c26.153 31.384 894.42 224.913 894.42 224.913z" clip-path="url(#m)" transform="translate(1616.13 -144.852) scale(.61107)" fill-opacity=".083" fill-rule="evenodd"/><ellipse ry="79.178" rx="409.117" cy="-19.572" cx="3775.142" fill="#009d56"/><circle cx="3782.501" cy="-2963.296" r="66.572" fill="#c21423"/><path d="M3782.5-2896.724a66.572 66.572 0 0 1-57.653-33.286 66.572 66.572 0 0 1 0-66.573 66.572 66.572 0 0 1 57.653-33.286v66.574z" fill="#ae000f"/><path d="M6897.855-4567.498a256.326 256.326 0 0 0-256.326 256.326 256.326 256.326 0 0 0 256.325 256.326 256.326 256.326 0 0 0 203.293-100.725 256.326 256.326 0 0 0 203.293 100.724 256.326 256.326 0 0 0 198.835-94.858 256.326 256.326 0 0 0 198.914 94.858 256.326 256.326 0 0 0 256.325-256.326A256.326 256.326 0 0 0 7702.19-4567.5a256.326 256.326 0 0 0-198.835 94.86 256.326 256.326 0 0 0-198.914-94.858 256.326 256.326 0 0 0-203.292 100.496 256.326 256.326 0 0 0-203.293-100.496z" clip-path="url(#o)" transform="translate(-671.715 296.227) scale(.61107)" fill="#5e2d14" fill-opacity=".094"/></g></svg>