<?xml version="1.0" encoding="UTF-8" standalone="no"?>
<!-- Created with Inkscape (http://www.inkscape.org/) -->
<svg id="svg10279" xmlns:rdf="http://www.w3.org/1999/02/22-rdf-syntax-ns#" xmlns="http://www.w3.org/2000/svg" height="5e3" width="7631.6" version="1.1" xmlns:cc="http://creativecommons.org/ns#" xmlns:dc="http://purl.org/dc/elements/1.1/" viewBox="0 0 7631.6099 5000">
 <metadata id="metadata10284">
  <rdf:RDF>
   <cc:Work rdf:about="">
    <dc:format>image/svg+xml</dc:format>
    <dc:type rdf:resource="http://purl.org/dc/dcmitype/StillImage"/>
    <dc:title/>
   </cc:Work>
  </rdf:RDF>
 </metadata>
 <g id="layer1" transform="translate(0 3947.6)">
  <rect id="rect12816" fill-opacity=".96471" ry="0" height="5e3" width="7631.6" y="-3947.6" x="8280.4" fill="#c0392b"/>
  <g id="layer1-5" transform="matrix(5.1312 0 0 5.1312 11208 -5100.4)" stroke="#fff" stroke-linecap="round" stroke-width="3.8978" fill="none">
   <path id="path0" stroke-linejoin="round" d="m241.07 547.27c5.3671-2.9728 6.1879-3.5228 10.982-7.3235 19.178-15.203 33.364-36.703 39.268-61.893 11.808-50.38-12.62-102.26-59.089-125.7l-0.11349 108.84-52.74 29.996-52.74-29.996-0.11349-108.84c-46.469 23.438-70.897 75.317-59.089 125.7 5.9039 25.19 20.09 46.69 39.268 61.893 9.589 7.6014 22.212 14.7 34.994 19.053l-0.67745 198.66-0.15496 0.58295c0 33.949-23.225 63.492-56.215 71.506-32.99 8.0141-67.181-7.581-83.146-38.251l30.42-16.666 0.62272 0.0156c6.3865 16.671 23.336 26.729 40.717 23.807 17.381-2.9224 30.11-17.97 30.11-35.595l0.14658-0.75705v-186.12"/>
   <path id="path1" stroke-linejoin="round" d="m139.49 816.58-0.34608 28.567c-12.02 4.4989-22.857 10.526-32.446 18.127-19.178 15.203-33.364 36.703-39.268 61.893-11.808 50.38 12.62 102.26 59.089 125.7l0.11349-108.84 52.74-29.996 52.74 29.996 0.11349 108.84c46.469-23.438 70.7-75.271 59.089-125.7-9.4598-41.083-38.367-69.443-73.154-79.648 0 0-0.37661-17.451-0.37661-20.46 19.197 10.481 52.411 7.3084 69.536-3.4161 20.804-13.589 33.639-38.547 33.345-63.394-1.0216-86.321-101.08-72.39-102-119.62-0.43941-22.614 13.73-33.74 31.931-35.854 18.201-2.1137 35.098 9.7459 39.298 27.582 0 0 27.744-13.067 31.781-14.149l-0.56415-1.8355c-8.1195-29.434-40.521-50.976-76.768-45.793-36.248 5.1834-63.174 34.887-63.111 74.257 0.0505 71.107 101.84 59.717 101.89 116.23 0.0493 17.33-11.628 31.946-28.076 35.67-16.448 3.7234-34.039-6.2064-41.645-21.05l-30.343 22.519"/>
   <path id="circ0" d="m177.35 538.42c-6.7063 0-12.143-5.4365-12.143-12.143 0-6.7063 5.4365-12.143 12.143-12.143 6.7063 0 12.143 5.4365 12.143 12.143" class="circ"/>
   <path id="circ1" d="m189.49 876.95c0-6.7063-5.4365-12.143-12.143-12.143-6.7063 0-12.143 5.4365-12.143 12.143 0 6.7063 5.4366 12.143 12.143 12.143" class="circ"/>
  </g>
  <rect id="rect12851" ry="0" height="5e3" width="7631.6" y="-3947.6" x="0" fill="#3498db"/>
  <g id="g13107" stroke="#fff" fill="none">
   <g id="g12933" stroke-linejoin="round" transform="translate(283.56 119.92)" stroke-linecap="round" stroke-width="20">
    <path id="path12896" d="m3162.6-1136.7a627.8 627.8 0 0 1 -887.85 0 627.8 627.8 0 0 1 -0.0001 -887.85 627.8 627.8 0 0 1 887.85 0"/>
    <path id="path12906" d="m3161.3-2023.9a98.789 98.789 0 0 1 25.568 95.423 98.789 98.789 0 0 1 -69.854 69.854 98.789 98.789 0 0 1 -95.423 -25.568"/>
    <path id="path12908" d="m3017.8-1272.2a437.24 437.24 0 0 1 -618.35 0 437.24 437.24 0 0 1 0 -618.35 437.24 437.24 0 0 1 618.35 0"/>
    <path id="path12910" d="m3161.3 1135a98.789 98.789 0 0 1 25.568 95.423 98.789 98.789 0 0 1 -69.854 69.854 98.789 98.789 0 0 1 -95.423 -25.568" transform="scale(1,-1)"/>
   </g>
   <g id="g12939" transform="translate(283.56 119.92)" stroke-width="20">
    <g stroke-linejoin="round" stroke-linecap="round">
     <path id="path12912" d="m3363.3-2011.1a374.81 374.81 0 0 1 421.6 -174.63 374.81 374.81 0 0 1 277.8 362.04"/>
     <path id="path12914" d="m-4012.5 1140.3a374.81 374.81 0 0 1 421.6 -174.63 374.81 374.81 0 0 1 277.8 362.04" transform="scale(-1)"/>
     <path id="path12916" d="m3489.6-1938.1a228.9 228.9 0 0 1 257.48 -106.65 228.9 228.9 0 0 1 169.66 221.1"/>
     <path id="path12918" transform="scale(1,-1)" d="m3459 1331.4a228.9 228.9 0 0 1 169.66 -221.1 228.9 228.9 0 0 1 257.48 106.65"/>
    </g>
    <path id="path12925" d="m3362.8-2008.1c-160.02 277.16 85.161 484.47 297.78 484.47 221.63 0 306.65 167.81 224.95 309.31"/>
    <path id="path12927" d="m3487.9-1933.6c-66.505 115.19 3.251 267.04 215.87 267.04 367.58 0 414.63 340.09 306.86 526.75"/>
    <path id="path12929" stroke-linejoin="round" d="m-1399.3 3286.6a72.326 72.326 0 0 1 18.719 69.862 72.326 72.326 0 0 1 -51.142 51.142 72.326 72.326 0 0 1 -69.862 -18.719" transform="rotate(225)" stroke-linecap="round"/>
    <path id="path12931" stroke-linejoin="round" transform="rotate(45)" stroke-linecap="round" d="m1583.1-4162.3a72.326 72.326 0 0 1 18.72 69.862 72.326 72.326 0 0 1 -51.142 51.142 72.326 72.326 0 0 1 -69.862 -18.72"/>
   </g>
   <g id="g12949" transform="translate(1176.6 119.92)" stroke-width="20">
    <g stroke-linejoin="round" stroke-linecap="round">
     <path id="path12951" d="m3363.3-2011.1a374.81 374.81 0 0 1 421.6 -174.63 374.81 374.81 0 0 1 277.8 362.04"/>
     <path id="path12953" transform="scale(-1)" d="m-4012.5 1140.3a374.81 374.81 0 0 1 421.6 -174.63 374.81 374.81 0 0 1 277.8 362.04"/>
     <path id="path12955" d="m3489.6-1938.1a228.9 228.9 0 0 1 257.48 -106.65 228.9 228.9 0 0 1 169.66 221.1"/>
     <path id="path12957" transform="scale(1,-1)" d="m3459 1331.4a228.9 228.9 0 0 1 169.66 -221.1 228.9 228.9 0 0 1 257.48 106.65"/>
    </g>
    <path id="path12959" d="m3362.8-2008.1c-160.02 277.16 85.161 484.47 297.78 484.47 221.63 0 306.65 167.81 224.95 309.31"/>
    <path id="path12961" d="m3487.9-1933.6c-66.505 115.19 3.251 267.04 215.87 267.04 367.58 0 414.63 340.09 306.86 526.75"/>
    <path id="path12963" stroke-linejoin="round" transform="rotate(225)" stroke-linecap="round" d="m-1399.3 3286.6a72.326 72.326 0 0 1 18.719 69.862 72.326 72.326 0 0 1 -51.142 51.142 72.326 72.326 0 0 1 -69.862 -18.719"/>
    <path id="path12965" stroke-linejoin="round" d="m1583.1-4162.3a72.326 72.326 0 0 1 18.72 69.862 72.326 72.326 0 0 1 -51.142 51.142 72.326 72.326 0 0 1 -69.862 -18.72" transform="rotate(45)" stroke-linecap="round"/>
   </g>
   <g stroke-linejoin="round" stroke-linecap="round">
    <path id="path12969" d="m-3088.3-1912.2a821.4 821.4 0 0 1 767.11 838.59 821.4 821.4 0 0 1 -805.03 802.26 821.4 821.4 0 0 1 -835.94 -770" transform="rotate(135)" stroke-width="20"/>
    <path id="path12971" d="m3642.2 1887.5a546.1 546.1 0 0 1 423.8 280.9 546.1 546.1 0 0 1 8.6466 508.37" transform="matrix(.53507 -.84480 .84480 .53507 0 0)" stroke-width="20"/>
    <path id="path12973" transform="matrix(.53507 -.84480 .84480 .53507 0 0)" stroke-width="19.43" d="m4080 2670.5a530.54 530.54 0 0 1 467.61 255.97 530.54 530.54 0 0 1 9.177 533 530.54 530.54 0 0 1 -458.52 271.91"/>
    <path id="path12975" transform="matrix(.53507 .84480 .84480 -.53507 0 0)" stroke-width="20" d="m1197.2 3431a546.1 546.1 0 0 1 410.3 257.64 546.1 546.1 0 0 1 43.979 482.48"/>
    <path id="path12977" d="m1650.6 4179.9a562.28 562.28 0 0 1 514.99 573.97 562.28 562.28 0 0 1 -542.29 548.26" transform="matrix(.53507 .84480 .84480 -.53507 0 0)" stroke-width="19.443"/>
    <g stroke-width="20">
     <circle id="path12979" cy="-2604.5" cx="3375.3" r="98.429"/>
     <circle id="circle12981" cx="3631.4" cy="-2795.1" r="65.023"/>
     <circle id="circle12983" cx="5613.7" cy="-252.94" r="145.32"/>
     <circle id="circle12985" cy="-38.12" cx="5374.6" r="92.014"/>
     <circle id="circle12987" cx="2785.3" cy="-191.89" r="62.28"/>
     <circle id="circle12989" cy="-2979.8" cx="3440.8" r="36.616"/>
     <circle id="circle12991" cx="5900.9" cy="-2437.7" r="102.17"/>
     <circle id="circle12993" cy="-668.45" cx="1659.4" r="102.17"/>
     <circle id="circle12995" cx="1909.6" cy="-2145.8" r="42.484"/>
     <circle id="circle12997" cy="-2145.8" cx="1909.6" r="42.484"/>
     <circle id="circle12999" cy="-1288" cx="5930.7" r="109.99"/>
     <circle id="circle13001" cx="5406.4" cy="-2586.6" r="63.657"/>
     <circle id="circle13003" cy="-48.917" cx="3113" r="170.06"/>
     <circle id="circle13005" cy="-2350.7" cx="2061.9" r="100.06"/>
     <circle id="circle13007" cx="4116.9" cy="-250.28" r="42.484"/>
     <circle id="circle13009" cy="-2558.6" cx="4580.2" r="42.484"/>
     <circle id="circle13011" cx="6088.2" cy="-2263.8" r="42.484"/>
     <circle id="circle13013" cy="-1160.1" cx="1631.6" r="42.484"/>
    </g>
   </g>
  </g>
 </g>
</svg>
