<svg xmlns="http://www.w3.org/2000/svg" viewBox="0 0 7631.61 5000.0003" height="5000" width="7631.61"><defs><clipPath id="a"><path fill="#b7d8f0" stroke-width="10" d="M241.277-927.828h4877.04v1625.69H241.277z"/></clipPath><clipPath id="b"><path d="M1470.507-1642.65h482.154v-3035.423s2.953-538.12-482.467-538.12c-485.42 0-482.468 538.12-482.468 538.12v3035.423h482.155" fill="#5a2c14" fill-rule="evenodd" stroke-width=".987"/></clipPath><clipPath id="c"><path d="M3041.22-2822.157L3484.112-714.83c21.876 100.372 114.663 107.45 141.29-.27l453.562-2107.056z" fill="#ffcb8a" fill-rule="evenodd"/></clipPath><clipPath id="d"><path d="M3041.22 3745.77l442.893 2107.33c21.876 100.37 114.663 107.447 141.29-.27l453.563-2107.058z" fill="#ffcb8a" fill-rule="evenodd"/></clipPath><clipPath id="h"><path d="M1085.52-3345.2a114.655 114.655 0 0 1-114.654 114.653A114.655 114.655 0 0 1 856.212-3345.2a114.655 114.655 0 0 1 114.654-114.656A114.655 114.655 0 0 1 1085.52-3345.2z" fill="#1bbcac" stroke="#fff" stroke-width="10" stroke-linecap="round" stroke-linejoin="round"/></clipPath><clipPath id="f"><circle cx="815.961" cy="-3105.905" r="272.534" fill="#1bbcac" stroke="#fff" stroke-width="8.907" stroke-linecap="round" stroke-linejoin="round"/></clipPath><clipPath id="g"><path d="M1085.52-3345.2a114.655 114.655 0 0 1-114.654 114.653A114.655 114.655 0 0 1 856.212-3345.2a114.655 114.655 0 0 1 114.654-114.656A114.655 114.655 0 0 1 1085.52-3345.2z" fill="#1bbcac" stroke="#fff" stroke-width="8" stroke-linecap="round" stroke-linejoin="round"/></clipPath><clipPath id="i"><path d="M615.726-3479.898l1.49-.683c17.782-8.148 38.44-.29 46.803 17.39l334.263 706.705c8.363 17.682.39 38.657-17.392 46.804l-1.488.68c-17.782 8.148-38.44.29-46.804-17.39l-334.263-706.705c-8.364-17.68-.39-38.656 17.39-46.803z" fill="#eaebeb" stroke-width="60" stroke-linecap="round" stroke-linejoin="round"/></clipPath><clipPath id="e"><circle cx="1067.027" cy="-2946.374" r="54.921" fill="#1bbcac" stroke="#fff" stroke-width="8" stroke-linecap="round" stroke-linejoin="round"/></clipPath></defs><g transform="translate(0 3947.638)"><text y="-6085.818" x="2773.904" style="line-height:125%" font-weight="400" font-size="40" font-family="sans-serif" letter-spacing="0" word-spacing="0"/><path fill="#1b7fac" d="M-758.126-8974.515h7576.822v2115.52H-758.126z"/><path fill="#f9bf38" d="M-6621.844-7504.775h2772.178v2510.652h-2772.178z"/><text y="-7616.775" x="960.724" style="line-height:125%" font-weight="400" font-size="676.378" font-family="sans-serif" letter-spacing="0" word-spacing="0"><tspan style="-inkscape-font-specification:'Lato Hairline'" y="-7616.775" x="960.724" font-family="Lato Hairline" fill="#fff">LSTICE STUDIOS</tspan></text><circle r="48.095" cy="-7726.291" cx="885.34" fill="#1bbcac" stroke="#fff" stroke-width="7.006" stroke-linecap="round" stroke-linejoin="round"/><path transform="matrix(.87572 0 0 .87572 -49.082 -5146.08)" d="M1123.63-3092.96a272.534 272.534 0 0 1-272.29 272.534 272.534 272.534 0 0 1-272.776-272.052 272.534 272.534 0 0 1 271.81-273.015 272.534 272.534 0 0 1 273.256 271.57" clip-path="url(#e)" fill="#07a898"/><circle cx="885.34" cy="-7726.291" r="48.095" fill="none" stroke="#fff" stroke-width="7.006" stroke-linecap="round" stroke-linejoin="round"/><circle r="238.665" cy="-7865.997" cx="665.476" fill="#1bbcac" stroke="#fff" stroke-width="7.8" stroke-linecap="round" stroke-linejoin="round"/><path transform="matrix(.87572 0 0 .87572 -49.082 -5146.08)" clip-path="url(#f)" d="M601.51-3283.743c41.315 206.397 200.325 335.368 470.747 311.216l-303.37 353.06-368.752-577.972z" fill="#07a898" fill-rule="evenodd"/><circle cx="665.476" cy="-7865.997" r="238.665" fill="none" stroke="#fff" stroke-width="7.8" stroke-linecap="round" stroke-linejoin="round"/><path d="M901.536-8075.554a100.406 100.406 0 0 1-100.406 100.406 100.406 100.406 0 0 1-100.406-100.406A100.406 100.406 0 0 1 801.13-8175.96a100.406 100.406 0 0 1 100.406 100.406z" fill="#1bbcac" stroke="#fff" stroke-width="7.006" stroke-linecap="round" stroke-linejoin="round"/><path transform="matrix(.87572 0 0 .87572 -49.082 -5146.08)" clip-path="url(#g)" d="M873.78-3409.926c11.085 68.033 90.208 143.156 201.57 117.43l-78.594 115.578-203.42-154.414z" fill="#07a898" fill-rule="evenodd"/><path transform="matrix(.87572 0 0 .87572 -49.082 -5146.08)" clip-path="url(#h)" d="M1021.26-3214.438a50.998 50.998 0 0 1-50.998 50.997 50.998 50.998 0 0 1-50.998-50.998 50.998 50.998 0 0 1 50.998-50.998 50.998 50.998 0 0 1 50.998 50.998z" fill="none" stroke="#fff" stroke-width="8" stroke-linecap="round" stroke-linejoin="round"/><text style="line-height:125%" x="14.85" y="-7632.807" font-weight="400" font-size="676.378" font-family="sans-serif" letter-spacing="0" word-spacing="0"><tspan x="14.85" y="-7632.807" style="-inkscape-font-specification:'Lato Hairline'" font-family="Lato Hairline" fill="#fff">S</tspan></text><circle r="21.185" cy="-8046.926" cx="828.084" fill="none" stroke="#fff" stroke-width="7.006" stroke-linecap="round" stroke-linejoin="round"/><circle r="34.807" cy="-8126.512" cx="811.479" fill="none" stroke="#fff" stroke-width="7.006" stroke-linecap="round" stroke-linejoin="round"/><circle r="13.741" cy="-8076.986" cx="741.913" fill="none" stroke="#fff" stroke-width="7.006" stroke-linecap="round" stroke-linejoin="round"/><path fill="#1b7fac" d="M-5585.873-3938.684h2062.49v1686.972h-2062.49z"/><ellipse transform="rotate(-55.294)" ry="54.921" rx="54.92" cx="-340.104" cy="-5323.484" fill="#1bbcac" stroke="#fff" stroke-width="8" stroke-linecap="round" stroke-linejoin="round"/><path transform="rotate(50.326 -1958.147 -8849.27)" clip-path="url(#e)" d="M1123.63-3092.96a272.534 272.534 0 0 1-272.29 272.534 272.534 272.534 0 0 1-272.776-272.052 272.534 272.534 0 0 1 271.81-273.015 272.534 272.534 0 0 1 273.256 271.57" fill="#07a898"/><circle transform="rotate(-55.294)" cx="-98.27" cy="-5506.266" r="272.534" fill="#1bbcac" stroke="#fff" stroke-width="8.907" stroke-linecap="round" stroke-linejoin="round"/><ellipse cy="-5323.484" cx="-340.104" rx="54.92" ry="54.921" transform="rotate(-55.294)" fill="none" stroke="#fff" stroke-width="8" stroke-linecap="round" stroke-linejoin="round"/><path transform="translate(-5395.21 52.514)" d="M601.51-3283.743c41.315 206.397 200.325 335.368 470.747 311.216l-303.37 353.06-368.752-577.972z" clip-path="url(#f)" fill="#07a898" fill-rule="evenodd"/><circle r="272.534" cy="-5506.266" cx="-98.27" transform="rotate(-55.294)" fill="none" stroke="#fff" stroke-width="8.907" stroke-linecap="round" stroke-linejoin="round"/><path d="M-4378.667-2872.698s655.784 267.474 245.3 14.99c-255.35-157.063-1018.796-476.556-1019.465-438.844-.67 37.712 302.865 189.133 302.865 189.133l-1.668 15.526s-468.945-234.406-468.083-283.003c.862-48.596 984.663 363.112 1313.715 565.508 528.962 325.36-387.926-49.06-387.926-49.06l15.793-13.24" fill="#fff" fill-rule="evenodd"/><path d="M490.125-8193.51l1.304-.6c15.57-7.134 33.663-.253 40.986 15.23L825.14-7560c7.323 15.483.34 33.852-15.23 40.987l-1.306.597c-15.572 7.135-33.663.254-40.987-15.23l-292.722-618.878c-7.324-15.484-.342-33.853 15.23-40.987z" fill="#eaebeb"/><path transform="matrix(.87572 0 0 .87572 -49.082 -5146.08)" clip-path="url(#i)" d="M632.725-3486.436l1.49-.683c17.782-8.146 38.44-.29 46.803 17.392l334.264 706.705c8.363 17.68.39 38.656-17.392 46.803l-1.49.683c-17.78 8.147-38.44.29-46.803-17.39l-334.263-706.706c-8.363-17.68-.39-38.656 17.39-46.803z" fill="#fff"/><path d="M901.536-8075.554a100.406 100.406 0 0 1-100.406 100.406 100.406 100.406 0 0 1-100.406-100.406A100.406 100.406 0 0 1 801.13-8175.96a100.406 100.406 0 0 1 100.406 100.406z" fill="none" stroke="#fff" stroke-width="7.006" stroke-linecap="round" stroke-linejoin="round"/><circle r="7.157" cy="-8087.578" cx="865.587" fill="#fff"/><circle cx="752.505" cy="-8021.447" r="7.157" fill="#fff"/><circle r="7.157" cy="-8118.783" cx="745.635" fill="#fff"/><circle r="11.738" cy="-8513.851" cx="170.782" fill="#fff"/><ellipse transform="rotate(-100.648)" ry="11.738" rx="11.738" cx="8215.157" cy="2167.215" fill="#fff"/><circle transform="rotate(149.852)" cx="-6331.973" cy="6162.274" r="11.738" fill="#fff"/><circle transform="rotate(-43.644)" cx="6812.226" cy="-5132.086" r="11.738" fill="#fff"/><ellipse transform="rotate(122.388)" ry="11.738" rx="11.738" cx="-8030.67" cy="3161.982" fill="#fff"/><circle transform="rotate(12.374)" cx="-153.153" cy="-8772.462" r="11.738" fill="#fff"/><ellipse transform="rotate(-74.82)" ry="11.738" rx="11.738" cx="8502.414" cy="-167.086" fill="#fff"/><ellipse transform="rotate(-80.68)" ry="11.738" rx="11.738" cx="8575.06" cy="977.407" fill="#fff"/><circle transform="rotate(14.412)" cx="787.071" cy="-8745.741" r="11.738" fill="#fff"/><circle transform="rotate(-176.56)" cx="-2436.723" cy="8636.531" r="11.738" fill="#fff"/><ellipse ry="11.738" rx="11.738" transform="rotate(165.656)" cx="-7886.503" cy="6684.524" fill="#fff"/><ellipse transform="rotate(83.58)" ry="11.738" rx="11.738" cx="-6601.977" cy="-5992.757" fill="#fff"/><ellipse transform="rotate(68.657)" ry="11.738" rx="11.738" cx="-7202.315" cy="-4960.6" fill="#fff"/><ellipse transform="rotate(-78.667)" ry="11.738" rx="11.738" cx="6955.639" cy="-1517.846" fill="#fff"/><circle transform="rotate(-27.37)" cx="4521.775" cy="-5864.68" r="11.738" fill="#fff"/><circle transform="rotate(27.47)" cx="-1470.392" cy="-7363.963" r="11.738" fill="#fff"/><ellipse transform="rotate(-52.35)" ry="11.738" rx="11.738" cx="7278.645" cy="-2348.063" fill="#fff"/><circle transform="rotate(42.978)" cx="-2800.108" cy="-7357.686" r="11.738" fill="#fff"/><circle transform="rotate(-8.85)" cx="4349.726" cy="-6662.083" r="11.738" fill="#fff"/><circle transform="rotate(143.668)" cx="-7197.632" cy="3797.305" r="11.738" fill="#fff"/><ellipse transform="rotate(77.837)" ry="11.738" rx="11.738" cx="-6445.559" cy="-5367.333" fill="#fff"/><ellipse transform="rotate(110.452)" ry="11.738" rx="11.738" cx="-8157.094" cy="-1151.897" fill="#fff"/><circle transform="rotate(11.154)" cx="2788.729" cy="-7993.605" r="11.738" fill="#fff"/><ellipse transform="rotate(74.678)" ry="11.738" rx="11.738" cx="-5901.405" cy="-6213.301" fill="#fff"/><ellipse transform="rotate(94.024)" ry="11.738" rx="11.738" cx="-7654.379" cy="-5422.667" fill="#fff"/><circle transform="rotate(-134.224)" cx="1243.859" cy="9988.003" r="11.738" fill="#fff"/><ellipse transform="rotate(-104.877)" ry="11.738" rx="11.738" cx="5473.83" cy="7769.798" fill="#fff"/><ellipse ry="11.738" rx="11.738" transform="rotate(16.413)" cx="3159.143" cy="-8393.593" fill="#fff"/><circle transform="rotate(-13.125)" cx="6285.421" cy="-6095.583" r="11.738" fill="#fff"/><circle transform="rotate(-161.225)" cx="-2080.822" cy="8315.13" r="11.738" fill="#fff"/><circle transform="rotate(36.164)" cx="-2149.788" cy="-8909.897" r="11.738" fill="#fff"/><circle transform="rotate(133.065)" cx="-8606.506" cy="3052.176" r="11.738" fill="#fff"/><ellipse transform="rotate(-51.485)" ry="11.738" rx="11.738" cx="7545.628" cy="-3817.438" fill="#fff"/><ellipse transform="rotate(83.045)" ry="11.738" rx="11.738" cx="-7887.644" cy="-5168.921" fill="#fff"/><circle transform="rotate(-130.108)" cx="3311.568" cy="9164.206" r="11.738" fill="#fff"/><circle transform="rotate(-165.425)" cx="-3355.013" cy="9541.773" r="11.738" fill="#fff"/><circle transform="rotate(30.15)" cx="409.927" cy="-10006.784" r="11.738" fill="#fff"/><ellipse transform="rotate(-84.27)" ry="11.738" rx="11.738" cx="7493.739" cy="875.718" fill="#fff"/><ellipse transform="rotate(-109.45)" ry="11.738" rx="11.738" cx="6094.195" cy="4637.748" fill="#fff"/><ellipse transform="rotate(-96.61)" ry="11.738" rx="11.738" cx="6882.559" cy="2449.912" fill="#fff"/><ellipse transform="rotate(-114.95)" ry="11.738" rx="11.738" cx="6310.036" cy="3510.436" fill="#fff"/><circle transform="rotate(135.167)" cx="-5811.068" cy="4492.486" r="11.738" fill="#fff"/><circle transform="rotate(143.932)" cx="-5015.19" cy="5194.723" r="11.738" fill="#fff"/><circle transform="rotate(-130.9)" cx="5631.402" cy="4771.256" r="11.738" fill="#fff"/><circle transform="rotate(28.29)" cx="-3726.152" cy="-6704.184" r="11.738" fill="#fff"/><circle transform="rotate(28.15)" cx="-4050.292" cy="-7273.514" r="11.738" fill="#fff"/><ellipse transform="rotate(-113.538)" ry="11.738" rx="11.738" cx="5076.496" cy="9074.613" fill="#fff"/><ellipse transform="rotate(-112.705)" ry="11.738" rx="11.738" cx="4606.587" cy="8683.439" fill="#fff"/><ellipse transform="rotate(101.273)" ry="11.738" rx="11.738" cx="-9145.032" cy="-4490.709" fill="#fff"/><circle transform="rotate(164.67)" cx="-6688.248" cy="6892.248" r="11.738" fill="#fff"/><circle transform="rotate(-3.62)" cx="5314.748" cy="-8201.799" r="11.738" fill="#fff"/><ellipse transform="rotate(-94.16)" ry="11.738" rx="11.738" cx="7890.116" cy="5764.399" fill="#fff"/><ellipse transform="rotate(-86.088)" ry="11.738" rx="11.738" cx="8825.656" cy="4506.972" fill="#fff"/><circle transform="rotate(155.784)" cx="-9079.366" cy="5364.287" r="11.738" fill="#fff"/><circle transform="rotate(153.45)" cx="-8875.858" cy="5189.594" r="11.738" fill="#fff"/><circle transform="rotate(-165.92)" cx="-3616.362" cy="9428.984" r="11.738" fill="#fff"/><ellipse transform="rotate(-82.296)" ry="11.738" rx="11.738" cx="8838.888" cy="3670.809" fill="#fff"/><circle transform="rotate(167.48)" cx="-6056.267" cy="7482.373" r="11.738" fill="#fff"/><ellipse transform="rotate(93.576)" ry="11.738" rx="11.738" cx="-8733.719" cy="-2202.66" fill="#fff"/><circle transform="rotate(-36.277)" cx="8065.033" cy="-4338.539" r="11.738" fill="#fff"/><ellipse transform="rotate(87.098)" ry="11.738" rx="11.738" cx="-8375.94" cy="-4220.039" fill="#fff"/><ellipse transform="rotate(119.232)" ry="11.738" rx="11.738" cx="-8845.403" cy="1201.342" fill="#fff"/><ellipse transform="rotate(75.445)" ry="11.738" rx="11.738" cx="-6959.763" cy="-6204.015" fill="#fff"/><ellipse transform="rotate(-102.163)" ry="11.738" rx="11.738" cx="6777.895" cy="3362.148" fill="#fff"/><circle transform="rotate(149.992)" cx="-5275.56" cy="6869.74" r="11.738" fill="#fff"/><circle transform="rotate(-165.692)" cx="1614.716" cy="8146.242" r="11.738" fill="#fff"/><circle transform="rotate(35.362)" cx="-4698.981" cy="-7259.739" r="11.738" fill="#fff"/><circle transform="rotate(-39.502)" cx="5472.364" cy="-6625.219" r="11.738" fill="#fff"/><ellipse transform="rotate(-62.643)" ry="11.738" rx="11.738" cx="7712.597" cy="-3199.62" fill="#fff"/><ellipse transform="rotate(77.772)" ry="11.738" rx="11.738" cx="-7762.648" cy="-2865.271" fill="#fff"/><circle transform="rotate(165.258)" cx="-3069.197" cy="7904.679" r="11.738" fill="#fff"/><ellipse transform="rotate(111.532)" ry="11.738" rx="11.738" cx="-7407.764" cy="3103.634" fill="#fff"/><ellipse transform="rotate(102.4)" ry="11.738" rx="11.738" cx="-8692.869" cy="491.73" fill="#fff"/><circle r="11.738" cy="-7107.851" cx="-1723.041" transform="rotate(15.856)" fill="#fff"/><circle r="11.738" cy="-1117.944" cx="-7083.904" transform="rotate(82.745)" fill="#fff"/><circle r="11.738" cy="6635.874" cx="3485.485" transform="rotate(-149.39)" fill="#fff"/><ellipse ry="11.738" rx="11.738" cy="-1045.661" cx="7057.385" transform="rotate(-76.103)" fill="#fff"/><circle r="11.738" cy="5976.504" cx="-4436.715" transform="rotate(147.93)" fill="#fff"/><ellipse cy="-1698.957" cx="9023.908" rx="11.738" ry="11.738" transform="rotate(-43.088)" fill="#fff"/><ellipse cy="9240.911" cx="727.141" rx="11.738" ry="11.738" transform="rotate(-137.944)" fill="#fff"/><circle r="11.738" cy="-8947.358" cx="1964.999" transform="rotate(8.205)" fill="#fff"/><ellipse cy="6996.082" cx="5465.994" rx="11.738" ry="11.738" transform="rotate(-107.6)" fill="#fff"/><path d="M-4412.432-3361.184a114.655 114.655 0 0 1-114.655 114.655 114.655 114.655 0 0 1-114.654-114.654 114.655 114.655 0 0 1 114.653-114.654 114.655 114.655 0 0 1 114.655 114.654z" fill="#1bbcac" stroke="#fff" stroke-width="8" stroke-linecap="round" stroke-linejoin="round"/><path transform="translate(-5497.953 -15.982)" d="M873.78-3409.926c11.085 68.033 90.208 143.156 201.57 117.43l-78.594 115.578-203.42-154.414z" clip-path="url(#g)" fill="#07a898" fill-rule="evenodd"/><path transform="translate(-5497.953 -15.982)" d="M1021.26-3214.438a50.998 50.998 0 0 1-50.998 50.997 50.998 50.998 0 0 1-50.998-50.998 50.998 50.998 0 0 1 50.998-50.998 50.998 50.998 0 0 1 50.998 50.998z" clip-path="url(#h)" fill="none" stroke="#fff" stroke-width="8" stroke-linecap="round" stroke-linejoin="round"/><circle cx="-4496.308" cy="-3328.493" r="24.191" fill="none" stroke="#fff" stroke-width="8" stroke-linecap="round" stroke-linejoin="round"/><circle cx="-4515.269" cy="-3419.373" r="39.746" fill="none" stroke="#fff" stroke-width="8" stroke-linecap="round" stroke-linejoin="round"/><circle cx="-4594.707" cy="-3362.819" r="15.692" fill="none" stroke="#fff" stroke-width="8" stroke-linecap="round" stroke-linejoin="round"/><path d="M-4412.432-3361.184a114.655 114.655 0 0 1-114.655 114.655 114.655 114.655 0 0 1-114.654-114.654 114.655 114.655 0 0 1 114.653-114.654 114.655 114.655 0 0 1 114.655 114.654z" fill="none" stroke="#fff" stroke-width="8" stroke-linecap="round" stroke-linejoin="round"/><circle cx="-4453.483" cy="-3374.914" r="8.173" fill="#fff"/><circle r="8.173" cy="-3299.398" cx="-4582.611" fill="#fff"/><circle cx="-4590.458" cy="-3410.547" r="8.173" fill="#fff"/><circle r="13.403" cy="4146.826" cx="2258.508" transform="rotate(149.992)" fill="#fff"/><ellipse ry="14.75" rx="14.75" transform="rotate(77.072)" cx="-4703.398" cy="4297.694" fill="#fff"/><circle transform="rotate(116.47)" cx="-957.363" cy="6177.171" r="17.373" fill="#fff"/><circle transform="rotate(49.276)" cx="-5820.517" cy="1559.722" r="10.217" fill="#fff"/><circle transform="rotate(88.94)" cx="-3536.595" cy="4835.657" r="9.211" fill="#fff"/><circle transform="rotate(-4.23)" cx="-4562.423" cy="-3828.401" r="16.076" fill="#fff"/><circle transform="rotate(115.525)" cx="-1339.394" cy="5425.561" r="16.948" fill="#fff"/><circle transform="rotate(-82.52)" cx="2988.868" cy="-4553.53" r="16.698" fill="#fff"/><circle transform="rotate(-122.833)" cx="4613.976" cy="-1779.975" r="11.298" fill="#fff"/><circle transform="rotate(68.585)" cx="-4234.533" cy="2446.762" r="18.419" fill="#fff"/><circle transform="rotate(-22.456)" cx="-2480.665" cy="-4573.326" r="9.474" fill="#fff"/><circle transform="rotate(-136.923)" cx="5165.08" cy="-520.194" r="19.396" fill="#fff"/><circle transform="rotate(103.455)" cx="-2579.607" cy="4577.246" r="18.922" fill="#fff"/><circle transform="rotate(148.075)" cx="1365.879" cy="5035.656" r="11.185" fill="#fff"/><circle transform="rotate(-144.223)" cx="5989.778" cy="217.971" r="18.788" fill="#fff"/><circle transform="rotate(-106.256)" cx="4711.53" cy="-3287.049" r="10.804" fill="#fff"/><circle transform="rotate(115.286)" cx="-504.803" cy="5910.298" r="10.593" fill="#fff"/><circle transform="rotate(-136.445)" cx="5606.663" cy="-1612.307" r="13.008" fill="#fff"/><ellipse ry="12.207" rx="12.207" transform="rotate(-94.413)" cx="3230.994" cy="-4841.372" fill="#fff"/><ellipse ry="7.621" rx="7.621" transform="rotate(74.3)" cx="-4171.505" cy="4320.99" fill="#fff"/><circle transform="rotate(151.352)" cx="3388.309" cy="4795.34" r="14.342" fill="#fff"/><circle transform="rotate(-42.027)" cx="-2030.144" cy="-5237.922" r="14.677" fill="#fff"/><circle transform="rotate(79.748)" cx="-3421.24" cy="4253.884" r="8.179" fill="#fff"/><circle transform="rotate(-177.055)" cx="4358.524" cy="2284.263" r="15.96" fill="#fff"/><circle transform="rotate(37.214)" cx="-4952.932" cy="617.226" r="13.709" fill="#fff"/><circle transform="rotate(-67.854)" cx="685.491" cy="-5180.204" r="11.794" fill="#fff"/><circle transform="rotate(175.01)" cx="4076.943" cy="2983.126" r="17.108" fill="#fff"/><circle transform="rotate(-8.333)" cx="-3448.715" cy="-3099.573" r="16.414" fill="#fff"/><ellipse ry="12.088" rx="12.088" transform="rotate(-83.796)" cx="2261.637" cy="-4056.691" fill="#fff"/><circle transform="rotate(48.85)" cx="-4430.6" cy="1131.463" r="18.947" fill="#fff"/><circle transform="rotate(138.865)" cx="1405.164" cy="4716.164" r="8.361" fill="#fff"/><circle transform="rotate(-103.104)" cx="3572.654" cy="-4172.704" r="8.267" fill="#fff"/><circle transform="rotate(80.474)" cx="-3439.372" cy="4500.816" r="9.929" fill="#fff"/><circle transform="rotate(12.74)" cx="-5806.412" cy="-1869.086" r="14.679" fill="#fff"/><ellipse ry="13.265" rx="13.265" transform="rotate(-69.06)" cx="1056.258" cy="-5804.555" fill="#fff"/><circle transform="rotate(15.432)" cx="-5594.21" cy="-1540.902" r="13.213" fill="#fff"/><circle transform="rotate(129.745)" cx="989.147" cy="5457.652" r="15.111" fill="#fff"/><circle transform="rotate(-90.892)" cx="2829.172" cy="-4941.08" r="9.217" fill="#fff"/><circle transform="rotate(12.2)" cx="-5838.823" cy="-2270.269" r="15.252" fill="#fff"/><circle transform="rotate(-27.25)" cx="-2181.76" cy="-4512.545" r="9.324" fill="#fff"/><circle transform="rotate(-158.997)" cx="5867.927" cy="1629.064" r="16.483" fill="#fff"/><circle transform="rotate(-77.83)" cx="2344.494" cy="-4850.416" r="16.427" fill="#fff"/><ellipse ry="7.86" rx="7.86" transform="rotate(-107.576)" cx="4498.688" cy="-2748.323" fill="#fff"/><circle transform="rotate(-35.757)" cx="-1204.403" cy="-4825.175" r="18.35" fill="#fff"/><circle transform="rotate(-102.2)" cx="4090.223" cy="-3051.989" r="8.168" fill="#fff"/><circle r="9.324" cy="-4389.414" cx="-2132.177" transform="rotate(-27.25)" fill="#fff"/><circle transform="rotate(-27.25)" cx="-2435.133" cy="-4075.462" r="4.757" fill="#fff"/><circle r="6.237" cy="-3328.421" cx="4716.459" transform="rotate(-106.256)" fill="#fff"/><ellipse cy="3156.544" cx="-7156.166" rx="11.738" ry="11.738" transform="rotate(111.532)" fill="#fff"/><ellipse transform="rotate(111.532)" ry="11.738" rx="11.738" cx="-6889.685" cy="3110.31" fill="#fff"/><ellipse cy="3354.799" cx="-7372.482" rx="11.738" ry="11.738" transform="rotate(111.532)" fill="#fff"/><circle r="11.738" cy="9763.188" cx="914.66" transform="rotate(-134.224)" fill="#fff"/><circle transform="rotate(-134.224)" cx="960.701" cy="10062.883" r="11.738" fill="#fff"/><circle r="11.738" cy="10265.929" cx="1228.249" transform="rotate(-134.224)" fill="#fff"/><path fill="#1b7fac" d="M0-3947.638h7631.62v5000H0z"/><g transform="translate(1161.925 -587.11)"><text y="-567.302" x="1922.648" style="line-height:125%" font-weight="400" font-size="828.154" font-family="sans-serif" letter-spacing="0" word-spacing="0"><tspan style="-inkscape-font-specification:'Lato Hairline'" y="-567.302" x="1922.648" font-family="Lato Hairline" fill="#fff">LSTICE</tspan></text><circle r="58.888" cy="-701.392" cx="1830.349" fill="#1bbcac" stroke="#fff" stroke-width="8.578" stroke-linecap="round" stroke-linejoin="round"/><path transform="matrix(1.07223 0 0 1.07223 686.248 2457.805)" d="M1123.63-3092.96a272.534 272.534 0 0 1-272.29 272.534 272.534 272.534 0 0 1-272.776-272.052 272.534 272.534 0 0 1 271.81-273.015 272.534 272.534 0 0 1 273.256 271.57" clip-path="url(#e)" fill="#07a898"/><circle cx="1830.349" cy="-701.392" r="58.888" fill="none" stroke="#fff" stroke-width="8.578" stroke-linecap="round" stroke-linejoin="round"/><circle r="292.22" cy="-872.447" cx="1561.149" fill="#1bbcac" stroke="#fff" stroke-width="9.55" stroke-linecap="round" stroke-linejoin="round"/><path transform="matrix(1.07223 0 0 1.07223 686.248 2457.805)" clip-path="url(#f)" d="M601.51-3283.743c41.315 206.397 200.325 335.368 470.747 311.216l-303.37 353.06-368.752-577.972z" fill="#07a898" fill-rule="evenodd"/><circle cx="1561.149" cy="-872.447" r="292.22" fill="none" stroke="#fff" stroke-width="9.55" stroke-linecap="round" stroke-linejoin="round"/><path d="M1850.18-1129.028a122.936 122.936 0 0 1-122.937 122.937 122.936 122.936 0 0 1-122.937-122.938 122.936 122.936 0 0 1 122.937-122.936 122.936 122.936 0 0 1 122.936 122.936z" fill="#1bbcac" stroke="#fff" stroke-width="8.578" stroke-linecap="round" stroke-linejoin="round"/><path transform="matrix(1.07223 0 0 1.07223 686.248 2457.805)" clip-path="url(#g)" d="M873.78-3409.926c11.085 68.033 90.208 143.156 201.57 117.43l-78.594 115.578-203.42-154.414z" fill="#07a898" fill-rule="evenodd"/><path transform="matrix(1.07223 0 0 1.07223 686.248 2457.805)" clip-path="url(#h)" d="M1021.26-3214.438a50.998 50.998 0 0 1-50.998 50.997 50.998 50.998 0 0 1-50.998-50.998 50.998 50.998 0 0 1 50.998-50.998 50.998 50.998 0 0 1 50.998 50.998z" fill="none" stroke="#fff" stroke-width="8" stroke-linecap="round" stroke-linejoin="round"/><text style="line-height:125%" x="764.526" y="-586.931" font-weight="400" font-size="828.154" font-family="sans-serif" letter-spacing="0" word-spacing="0"><tspan x="764.526" y="-586.931" style="-inkscape-font-specification:'Lato Hairline'" font-family="Lato Hairline" fill="#fff">S</tspan></text><circle r="25.939" cy="-1093.976" cx="1760.245" fill="none" stroke="#fff" stroke-width="8.578" stroke-linecap="round" stroke-linejoin="round"/><circle r="42.617" cy="-1191.421" cx="1739.914" fill="none" stroke="#fff" stroke-width="8.578" stroke-linecap="round" stroke-linejoin="round"/><circle r="16.825" cy="-1130.781" cx="1654.737" fill="none" stroke="#fff" stroke-width="8.578" stroke-linecap="round" stroke-linejoin="round"/><path d="M1346.45-1273.454l1.597-.732c19.066-8.736 41.217-.31 50.184 18.647l358.41 757.753c8.966 18.958.418 41.448-18.65 50.184l-1.596.732c-19.066 8.735-41.217.31-50.184-18.648l-358.408-757.752c-8.967-18.96-.42-41.45 18.647-50.184z" fill="#eaebeb"/><path transform="matrix(1.07223 0 0 1.07223 686.248 2457.805)" clip-path="url(#i)" d="M632.725-3486.436l1.49-.683c17.782-8.146 38.44-.29 46.803 17.392l334.264 706.705c8.363 17.68.39 38.656-17.392 46.803l-1.49.683c-17.78 8.147-38.44.29-46.803-17.39l-334.263-706.706c-8.363-17.68-.39-38.656 17.39-46.803z" fill="#fff"/><path d="M1850.18-1129.028a122.936 122.936 0 0 1-122.937 122.937 122.936 122.936 0 0 1-122.937-122.938 122.936 122.936 0 0 1 122.937-122.936 122.936 122.936 0 0 1 122.936 122.936z" fill="none" stroke="#fff" stroke-width="8.578" stroke-linecap="round" stroke-linejoin="round"/><circle r="8.763" cy="-1143.75" cx="1806.163" fill="#fff"/><circle cx="1667.707" cy="-1062.779" r="8.763" fill="#fff"/><circle r="8.763" cy="-1181.956" cx="1659.295" fill="#fff"/></g></g></svg>