<?xml version="1.0" encoding="UTF-8" standalone="no"?>
<!-- Created with Inkscape (http://www.inkscape.org/) -->
<svg id="svg10279" xmlns:rdf="http://www.w3.org/1999/02/22-rdf-syntax-ns#" xmlns="http://www.w3.org/2000/svg" height="5e3" width="7631.6" version="1.1" xmlns:cc="http://creativecommons.org/ns#" xmlns:dc="http://purl.org/dc/elements/1.1/" viewBox="0 0 7631.6099 5000">
 <metadata id="metadata10284">
  <rdf:RDF>
   <cc:Work rdf:about="">
    <dc:format>image/svg+xml</dc:format>
    <dc:type rdf:resource="http://purl.org/dc/dcmitype/StillImage"/>
    <dc:title/>
   </cc:Work>
  </rdf:RDF>
 </metadata>
 <g id="layer1" transform="translate(0 3947.6)">
  <g stroke-width="56.08">
   <g id="g11467" transform="matrix(.20734 0 0 .20734 278.07 -366.71)" stroke="#000" stroke-linecap="round" fill="none">
    <path id="path11414" stroke-linejoin="round" d="m5330.7-12492c0-303.25-120.47-594.08-334.9-808.52-214.43-214.43-505.26-334.9-808.52-334.9-303.25 0-594.08 120.47-808.52 334.9-214.43 214.43-334.9 505.26-348.42 810.13-356.71 1.613-673.83 184.7-845.42 481.91s-171.59 663.38 0 960.59 488.71 480.3 835.37 480.06m1272.4 0h1160.5c375.18-7.084 721.14-287.15 836.87-702.56 56.312-202.13 44.889-417.15-32.523-612.18s-216.55-359.35-396.16-467.84-389.8-155.19-598.45-132.96c-208.65 22.232-404.28 112.17-557 256.08"/>
    <g>
     <path id="path11418" d="m3446.4-11001-575.84 1558.2"/>
     <path id="path11420" d="m3917.4-11305-914.58 2427.6"/>
     <path id="path11422" d="m4173.8-11001-575.84 1558.2"/>
    </g>
   </g>
   <g id="g11487" transform="matrix(.20734 0 0 .20734 306.36 -366.71)" stroke="#000" stroke-linecap="round" fill="none">
    <path id="path11427" stroke-linejoin="round" d="m11555-12492c0-303.25-120.47-594.08-334.9-808.52-214.43-214.43-505.26-334.9-808.52-334.9-303.25 0-594.08 120.47-808.52 334.9-214.43 214.43-334.9 505.26-348.42 810.13-356.71 1.613-673.83 184.7-845.42 481.91s-171.59 663.38 0 960.59 488.71 480.3 835.37 480.06m3.7782 0h2429.2c375.18-7.084 721.14-287.15 836.87-702.56 56.312-202.13 44.89-417.15-32.523-612.18-77.412-195.03-216.55-359.35-396.16-467.84s-389.8-155.19-598.45-132.96c-208.65 22.232-404.28 112.17-557 256.08"/>
    <path id="path11429" stroke-linejoin="round" transform="rotate(14.81)" d="m7651.1-15602a770.15 770.15 0 0 1 655.05 -725.1 770.15 770.15 0 0 1 838.95 501.03 770.15 770.15 0 0 1 -327.76 920.57"/>
    <g>
     <path id="path11431" d="m11323-13750-444-430"/>
     <path id="path11441" d="m12065-14062-51.167-616.34"/>
     <path id="path11451" d="m12936-13712 427.04-447.36"/>
     <path id="path11453" d="m13252-12829 618.09 21.525"/>
     <path id="path11455" d="m12888-12078 439.22 435.41"/>
     <path id="path11457" d="m12888-12078 439.22 435.41"/>
    </g>
   </g>
   <g id="g11497" transform="matrix(.20734 0 0 .20734 317.12 -366.71)" stroke="#000" stroke-linecap="round" fill="none">
    <path id="path11459" stroke-linejoin="round" d="m18316-12492c0-303.25-120.47-594.08-334.9-808.52-214.43-214.43-505.26-334.9-808.52-334.9-303.25 0-594.08 120.47-808.52 334.9-214.43 214.43-334.9 505.26-348.42 810.13-356.71 1.613-673.83 184.7-845.42 481.91s-171.59 663.38 0 960.59 488.71 480.3 835.37 480.06m1272.4 0h1160.5c375.18-7.084 721.14-287.15 836.87-702.56 56.312-202.13 44.89-417.15-32.523-612.18-77.412-195.03-216.55-359.35-396.16-467.84s-389.8-155.19-598.45-132.96c-208.65 22.232-404.28 112.17-557 256.08"/>
    <g>
     <path id="path11461" d="m16432-11001-575.84 1558.2"/>
     <path id="path11463" d="m16903-11305-914.58 2427.6"/>
     <path id="path11465" d="m17159-11001-575.84 1558.2"/>
    </g>
    <path id="path11473" stroke-linejoin="round" transform="rotate(14.81)" d="m14173-17326a770.15 770.15 0 0 1 655.05 -725.1 770.15 770.15 0 0 1 838.95 501.03 770.15 770.15 0 0 1 -327.76 920.57"/>
    <g>
     <path id="path11475" d="m18070-13750-445-430"/>
     <path id="path11477" d="m18811-14062-51.167-616.34"/>
     <path id="path11479" d="m19682-13712 427.04-447.36"/>
     <path id="path11481" d="m19998-12829 618.09 21.525"/>
     <path id="path11483" d="m19634-12078 439.22 435.41"/>
     <path id="path11485" d="m19634-12078 439.22 435.41"/>
    </g>
   </g>
   <g id="g11735" transform="matrix(.20734 0 0 .20734 302.81 -366.71)">
    <path id="path11567" stroke-linejoin="round" d="m18385-5916c0-303.25-120.47-594.08-334.9-808.52-214.43-214.43-505.26-334.9-808.52-334.9-303.25 0-594.08 120.47-808.52 334.9-214.43 214.43-334.9 505.26-348.42 810.13-356.71 1.613-673.83 184.7-845.42 481.91s-171.59 663.38 0 960.59 488.71 480.3 835.37 480.06m1168 0h1265c375.18-7.084 721.14-287.15 836.87-702.56 56.312-202.13 44.889-417.15-32.523-612.18-77.413-195.03-216.56-359.35-396.16-467.84-179.61-108.49-389.8-155.19-598.45-132.96-208.65 22.232-404.28 112.17-557 256.08" stroke="#000" stroke-linecap="round" stroke-width="56.08" fill="none"/>
    <g stroke-width="43.364">
     <g id="g11569" transform="matrix(1.2932 0 0 1.2932 12253 1146.1)" stroke="#000" stroke-linecap="round" fill="none">
      <path id="path11571" d="m3223.9-4365.6 313.43 343.29"/>
      <path id="path11573" d="m3450.9-4415.5-140.58 443.09"/>
      <path id="path11575" d="m3607.6-4243.8-454.01 99.8"/>
     </g>
     <g id="g11577" transform="matrix(1.2932 0 0 1.2932 12670 2029)" stroke="#000" stroke-linecap="round" fill="none">
      <path id="path11579" d="m3223.9-4365.6 313.43 343.29"/>
      <path id="path11581" d="m3450.9-4415.5-140.58 443.09"/>
      <path id="path11583" d="m3607.6-4243.8-454.01 99.8"/>
     </g>
     <g id="g11585" transform="matrix(1.2932 0 0 1.2932 11711 2081)">
      <g id="g11730" transform="translate(-11.541 2.7329e-7)" stroke="#000" stroke-linecap="round" stroke-width="43.364" fill="none">
       <path id="path11587" d="m3258.5-4377.1 313.43 343.29"/>
       <path id="path11589" d="m3485.5-4427-140.58 443.09"/>
       <path id="path11591" d="m3642.2-4255.4-454.01 99.8"/>
      </g>
     </g>
     <g id="g11593" transform="matrix(1.2932 0 0 1.2932 12231 2847.1)" stroke="#000" stroke-linecap="round" fill="none">
      <path id="path11595" d="m3223.9-4365.6 313.43 343.29"/>
      <path id="path11597" d="m3450.9-4415.5-140.58 443.09"/>
      <path id="path11599" d="m3607.6-4243.8-454.01 99.8"/>
     </g>
    </g>
   </g>
  </g>
  <g id="g11921" stroke-linejoin="round" transform="translate(26.619 -164.97)" stroke="#000" stroke-linecap="round" stroke-width="11.628" fill="none">
   <path id="path11512" d="m1356.7-1343.2c0-62.877-24.978-123.18-69.439-167.64-44.461-44.461-104.76-69.438-167.64-69.438-62.877 0-123.18 24.978-167.64 69.438-44.461 44.461-69.439 104.76-72.243 167.97-73.961 0.3345-139.71 38.296-175.29 99.92-35.579 61.624-35.579 137.55 0 199.17 35.579 61.624 101.33 99.586 173.21 99.537m263.83 0h240.62c77.79-1.4688 149.52-59.538 173.52-145.67 11.676-41.911 9.3075-86.492-6.7433-126.93s-44.901-74.508-82.141-97.003-80.822-32.178-124.08-27.568c-43.262 4.6096-83.825 23.258-115.49 53.095"/>
   <circle id="path11601" cy="-977.77" cx="958.76" r="31.327"/>
   <circle id="circle11603" cx="1062.8" cy="-1034" r="31.327"/>
   <circle id="circle11617" cx="958.76" cy="-849.34" r="31.327"/>
   <circle id="circle11619" cy="-714.72" cx="958.76" r="31.327"/>
   <circle id="circle11621" cy="-908.64" cx="1062.8" r="31.327"/>
   <circle id="circle11623" cx="1062.8" cy="-772.48" r="31.327"/>
  </g>
  <g id="g11702" transform="matrix(.20734 0 0 .20734 335.61 -366.71)" stroke="#000" stroke-linecap="round" stroke-width="56.08" fill="none">
   <circle id="path11643" stroke-linejoin="round" transform="rotate(14.81)" cy="-7452.6" cx="8818.7" r="770.15"/>
   <g>
    <path id="path11665" d="m9277.6-5004.5-618.38 9.8309"/>
    <path id="path11669" d="m9634.8-5804.5-444.22-430.31"/>
    <path id="path11671" d="m10453-6117.6-9.831-618.38"/>
    <path id="path11673" d="m11253-5760.4 430.31-444.22"/>
    <path id="path11675" d="m11566-4942.2 618.38-9.831"/>
    <path id="path11677" d="m11209-4142.2 444.22 430.31"/>
    <path id="path11679" d="m10391-3829 9.831 618.38"/>
    <path id="path11681" d="m9590.7-4186.2-430.31 444.22"/>
   </g>
  </g>
  <g id="g11881" transform="matrix(.97146 0 0 .97146 201.3 -190.07)" stroke="#000" stroke-linecap="round" stroke-width="11.969" fill="none">
   <path id="path11773" stroke-linejoin="round" d="m5153.9-2587-62.608 186.82h88.997l-94.911 293.36 284.73-375.33h-126.32l70.25-174.51"/>
   <g>
    <path id="path11777" d="m4998.1-2103-90.162-90.162"/>
    <path id="path11779" d="m5030.1-2190.2-29.085-107.61"/>
    <path id="path11781" d="m5207-2109.1 137.96-51.646"/>
    <path id="path11783" d="m5226.9-2191.4 95.042-93.217"/>
   </g>
   <path id="path11813" stroke-linejoin="round" d="m5521.9-2854.2c0-64.724-25.712-126.8-71.479-172.56-45.767-45.767-107.84-71.479-172.56-71.479-64.725 0-126.8 25.712-172.57 71.479-45.767 45.767-71.479 107.84-74.365 172.91-76.134 0.3443-143.82 39.421-180.44 102.86-36.624 63.434-36.624 141.59 0 205.02 36.624 63.434 104.31 102.51 178.3 102.46m389.35 0h129.93c80.076-1.512 153.92-61.287 178.62-149.95 12.019-43.142 9.5811-89.034-6.9415-130.66-16.522-41.626-46.22-76.698-84.554-99.853-38.334-23.156-83.196-33.123-127.73-28.378-44.533 4.745-86.288 23.942-118.88 54.655"/>
  </g>
  <g id="g11889" stroke-linejoin="round" transform="matrix(.97146 0 0 .97146 -30.642 -184.11)" stroke="#000" stroke-linecap="round" stroke-width="11.969" fill="none">
   <path id="path11833" d="m5611.3-1466.6c0-64.724-25.712-126.8-71.479-172.56-45.767-45.767-107.84-71.479-172.56-71.479-64.725 0-126.8 25.712-172.57 71.479-45.767 45.767-71.479 107.84-74.365 172.91-76.134 0.3443-143.82 39.421-180.44 102.86-36.624 63.434-36.624 141.59 0 205.02 36.624 63.434 104.31 102.51 178.3 102.46m0.8064 0h518.47c80.076-1.512 153.92-61.287 178.62-149.95 12.019-43.142 9.5811-89.033-6.9415-130.66-16.522-41.626-46.22-76.698-84.554-99.853-38.334-23.156-83.196-33.123-127.73-28.378-44.533 4.7451-86.288 23.942-118.88 54.655"/>
   <path id="path11857" d="m5910.2-1626.7c0-64.724-25.712-126.8-71.479-172.56-45.767-45.767-107.84-71.479-172.56-71.479-64.725 0-126.8 25.712-172.57 71.479-18.97 18.97-50.636 62.434-47.568 102.19m373.99 481.06h116.34c80.076-1.512 153.92-61.287 178.62-149.95 12.019-43.142 9.581-89.033-6.9415-130.66-16.522-41.626-46.22-76.698-84.554-99.853-38.334-23.156-83.196-33.123-127.73-28.378-44.533 4.7451-86.288 23.942-118.88 54.655"/>
  </g>
  <g id="g11939" transform="translate(80.233 -212.63)" stroke="#000" stroke-linecap="round" stroke-width="11.628" fill="none">
   <path id="path11861" d="m6169.4-2662.5h541.12"/>
   <path id="path11863" d="m6169.4-2760.2h322.91"/>
   <g stroke-linejoin="round">
    <path id="path11865" d="m6581.6-2849.7a89.428 89.428 0 0 1 -89.428 89.428"/>
    <path id="path11867" d="m6386.6-2818.8a100.31 100.31 0 0 1 26.038 -106.91 100.31 100.31 0 0 1 108.43 -18.704 100.31 100.31 0 0 1 60.351 92.007"/>
    <path id="path11871" d="m6647.4-2906a131.27 131.27 0 0 1 150.95 10.584 131.27 131.27 0 0 1 40.678 145.76 131.27 131.27 0 0 1 -123.66 87.224"/>
   </g>
   <path id="path11875" d="m6171.9-2555h419.5"/>
   <path id="path11877" stroke-linejoin="round" transform="scale(1,-1)" d="m6690.8 2451.9a103.05 103.05 0 0 1 -103.05 103.05"/>
   <path id="path11879" stroke-linejoin="round" transform="scale(1,-1)" d="m6475 2390.9a115.59 115.59 0 0 1 130.02 -53.856 115.59 115.59 0 0 1 85.673 111.65"/>
  </g>
  <g id="g11930" transform="translate(26.619 -212.63)" stroke="#000" stroke-linecap="round" stroke-width="15" fill="none">
   <path id="path11893" d="m6295.9-1690.7h564.65"/>
   <path id="path11895" d="m6403.5-1588.9h486.58"/>
   <path id="path11897" d="m6496.8-1487h396.45"/>
   <path id="path11899" d="m6448.2-1385.2h327.49"/>
   <path id="path11901" d="m6428.3-1283.3h253.29"/>
   <path id="path11903" d="m6524.7-1181.5h156.92"/>
   <path id="path11905" d="m6628.2-1079.6h105.14"/>
  </g>
  <g stroke="#000" stroke-linecap="round" stroke-width="11.628" fill="none">
   <circle id="circle11909" stroke-linejoin="round" cy="87.785" cx="1221.3" r="31.327"/>
   <path id="path11951" stroke-linejoin="round" d="m1383.3-298.83c0-62.877-24.978-123.18-69.438-167.64-44.461-44.461-104.76-69.438-167.64-69.438-62.877 0-123.18 24.978-167.64 69.438-44.461 44.461-69.439 104.76-72.243 167.97-73.961 0.3344-139.71 38.296-175.29 99.92-35.578 61.624-35.578 137.55 0 199.17 35.62 61.626 101.37 99.59 173.25 99.54m417.58 0h86.872c77.79-1.4688 149.52-59.538 173.52-145.67 11.676-41.911 9.3075-86.492-6.7433-126.93s-44.901-74.508-82.141-97.003-80.822-32.178-124.08-27.568c-43.262 4.6097-83.825 23.258-115.49 53.095"/>
   <g>
    <path id="path11953" d="m992.65 10.382-119.4 323.08"/>
    <path id="path11955" d="m1090.3-52.828-189.63 503.34"/>
    <path id="path11957" d="m1143.5 10.382-119.4 323.08"/>
   </g>
   <g stroke-linejoin="round">
    <circle id="circle11963" cx="1299.2" cy="186.77" r="31.327"/>
    <circle id="circle11965" cy="214.15" cx="1174.9" r="31.327"/>
    <circle id="circle11967" cx="1128.6" cy="340.52" r="31.327"/>
    <circle id="circle11969" cy="302.61" cx="1252.9" r="31.327"/>
   </g>
  </g>
  <g id="g11982" stroke-linejoin="round" transform="translate(26.619 -164.97)" stroke="#000" stroke-linecap="round" fill="none">
   <path id="path11976" d="m2750.4 41.479a299.96 299.96 0 0 1 -315.9 221.18 299.96 299.96 0 0 1 -272.7 -272.67 299.96 299.96 0 0 1 221.2 -315.88" stroke-width="10.37"/>
   <path id="path11978" d="m2748.7 40.318a260.34 260.34 0 0 1 -342.4 -22.662 260.34 260.34 0 0 1 -22.5 -342.46" stroke-width="10.018"/>
  </g>
  <g id="g12026" stroke-linejoin="round" transform="translate(26.619 -164.97)" stroke="#000" stroke-linecap="round" fill="none">
   <path id="path11988" d="m4047.5-49.97c0-62.877-24.978-123.18-69.438-167.64-44.461-44.461-104.76-69.439-167.64-69.439-62.877 0-123.18 24.978-167.64 69.439-44.461 44.461-69.438 104.76-72.242 167.97-73.961 0.33447-139.71 38.296-175.29 99.92-35.578 61.624-35.578 137.55 0 199.17 35.578 61.624 101.33 99.586 173.21 99.537m0.7834 0h503.67c77.79-1.4688 149.52-59.538 173.52-145.67 11.676-41.911 9.3076-86.492-6.7433-126.93s-44.901-74.508-82.141-97.003-80.822-32.178-124.08-27.568c-43.262 4.6097-83.825 23.258-115.49 53.095" stroke-width="11.628"/>
   <g stroke-width="11.628">
    <path id="path11996" d="m4458.1-170.5c-33.4 124.85-137.1 207.65-240.8 204.32m-283.1-288.38c-8.6199-102.31 72.863-208.67 197.71-242.12"/>
    <path id="path11998" d="m4456.6-171.53a231.15 231.15 0 0 1 -304 -20.12 231.15 231.15 0 0 1 -19.9 -304.06"/>
    <path id="path12020" d="m4458.1-170.5c-33.4 124.85-137.1 207.65-240.8 204.32m-283.1-288.38c-8.6199-102.31 72.863-208.67 197.71-242.12"/>
   </g>
  </g>
  <g id="g12032" transform="translate(26.619 -164.97)" stroke="#000" stroke-linecap="round" fill="none">
   <g id="g12007" transform="matrix(.20734 0 0 .20734 4373.8 2520.6)" stroke-width="56.08">
    <path id="path12009" stroke-linejoin="round" d="m5330.7-12492c0-303.25-120.47-594.08-334.9-808.52-214.43-214.43-505.26-334.9-808.52-334.9-303.25 0-594.08 120.47-808.52 334.9-214.43 214.43-334.9 505.26-348.42 810.13-356.71 1.613-673.83 184.7-845.42 481.91s-171.59 663.38 0 960.59 488.71 480.3 835.37 480.06m1272.4 0h1160.5c375.18-7.084 721.14-287.15 836.87-702.56 56.312-202.13 44.889-417.15-32.523-612.18s-216.55-359.35-396.16-467.84-389.8-155.19-598.45-132.96c-208.65 22.232-404.28 112.17-557 256.08"/>
    <g>
     <path id="path12011" d="m3446.4-11001-575.84 1558.2"/>
     <path id="path12013" d="m3917.4-11305-914.58 2427.6"/>
     <path id="path12015" d="m4173.8-11001-575.84 1558.2"/>
    </g>
   </g>
   <path id="path12022" stroke-linejoin="round" d="m5910.2-171.53a231.15 231.15 0 0 1 -304.04 -20.121 231.15 231.15 0 0 1 -19.927 -304.06" stroke-width="11.628"/>
   <path id="path12024" stroke-linejoin="round" d="m5911.6-170.5c-33.4 124.85-137.1 207.65-240.7 204.32m-283.1-288.38c-8.6199-102.31 72.863-208.67 197.71-242.12" stroke-width="11.628"/>
  </g>
  <g id="g12049" transform="translate(26.619 -164.97)" stroke="#000" stroke-linecap="round" stroke-width="15" fill="none">
   <path id="path12041" stroke-linejoin="round" d="m6750.9 51.959a243.29 243.29 0 0 1 72.233 269.58 243.29 243.29 0 0 1 -228.61 160.08 243.29 243.29 0 0 1 -228.61 -160.08 243.29 243.29 0 0 1 72.233 -269.58"/>
   <path id="path12043" d="m6442.4 48.592v-452.74"/>
   <path id="path12045" d="m6749.4 48.592v-452.74"/>
   <path id="path12047" stroke-linejoin="round" d="m6442.6-407.73a153.34 153.34 0 0 1 153.34 -153.34 153.34 153.34 0 0 1 153.34 153.34"/>
  </g>
  <g stroke="#000" stroke-linecap="round" stroke-width="15" fill="none">
   <path id="path12057" stroke-linejoin="round" d="m6691.6-76.178a168.33 168.33 0 0 1 93.814 189.28 168.33 168.33 0 0 1 -165.02 131.89 168.33 168.33 0 0 1 -163.95 -133.22 168.33 168.33 0 0 1 95.342 -188.51"/>
   <path id="path12059" d="m6552.1-78.824v-384.79"/>
   <path id="path12061" d="m6691-82.856v-65.664"/>
   <path id="path12063" stroke-linejoin="round" d="m6552.6-473.16c0-38.174 30.946-69.12 69.12-69.12s69.12 30.946 69.12 69.12"/>
   <g>
    <path id="path12069" d="m6690.5-212.44h85.299v1.0531"/>
    <path id="path12071" d="m6690.5-297.99h85.299v1.0531"/>
    <path id="path12073" d="m6690.5-382.31h85.299v1.0531"/>
    <path id="path12095" d="m6691-444.06v-23.541"/>
   </g>
  </g>
 </g>
</svg>
