<svg xmlns="http://www.w3.org/2000/svg" viewBox="0 0 4882.1698 870.77505" height="870.775" width="4882.17"><defs><clipPath id="i"><path d="M4879.016 1152.36c-1940.41-905.278-3070.618 108.503-3263.193-204.195l1368.52 204.194z" fill="#5ed582" fill-rule="evenodd"/></clipPath><clipPath id="h"><path d="M2548.6 470.83l-370.077-346.667-357.397 327.768z" fill="#bdd2fb" fill-rule="evenodd"/></clipPath><clipPath id="g"><path d="M2187.01 478.363l244.315-262.478 415.06 249.762z" fill="#b3c8f1" fill-rule="evenodd"/></clipPath><clipPath id="f"><path d="M1146.15 385.858l200.37 5.137 632.82-637.516 191.783 172.553 90.35 15.413 585.26 413.585-1482.23 205.51z" fill="#a69ba1" fill-rule="evenodd"/></clipPath><clipPath id="e"><path d="M2630.507 268.86l184.958-141.286 113.03 51.378 71.927-113.03 105.324-41.102L3208.5-124.173l174.682 79.634 303.125 346.797-405.88 280.005z" fill="#9c919b" fill-rule="evenodd"/></clipPath><clipPath id="n"><path d="M2630.507 268.86l184.958-141.286 113.03 51.378 71.927-113.03 105.324-41.102L3208.5-124.173l174.682 79.634 303.125 346.797-405.88 280.005z" fill="#9c919b" fill-rule="evenodd"/></clipPath><clipPath id="o"><path d="M2630.507 268.86l184.958-141.286 113.03 51.378 71.927-113.03 105.324-41.102L3208.5-124.173l174.682 79.634 303.125 346.797-405.88 280.005z" fill="#9c919b" fill-rule="evenodd"/></clipPath><clipPath id="d"><path d="M1510.487 276.568L1248.463 78.766l-364.777 159.27-110.46 231.196 706.434 41.102z" fill="#9c9197" fill-rule="evenodd"/></clipPath><clipPath id="c"><path d="M3414.008 315.1l269.73-280.004 110.46 30.826 280.006 318.538z" fill="#9c9197" fill-rule="evenodd"/></clipPath><clipPath id="k"><path d="M3760.793 1152.36c168.71-416.457 1436.488-386.622 2309.26 18.164z" fill="#6ed99b" fill-rule="evenodd"/></clipPath><clipPath id="b"><path d="M4286.833 271.287l192.544-123.52 421.418 330.596-588.532-32.697z" fill="#b0a5ab" fill-rule="evenodd"/></clipPath><clipPath id="m"><path fill="#b7d8f0" stroke-width="10" d="M241.277-927.828h4877.04v1625.69H241.277z"/></clipPath><clipPath id="j"><path fill="#b7d8f0" stroke-width="10" d="M241.277-927.828h4877.04v1625.69H241.277z"/></clipPath><clipPath id="a"><path fill="#b7d8f0" stroke-width="10" d="M241.277-927.828h4877.04v1625.69H241.277z"/></clipPath><clipPath id="l"><path transform="matrix(1.09773 0 0 1.09773 -54.43 -67.643)" d="M3185.178 702.362l-3225.14 18.165c1253.934-595.85 2772.228-160.35 3225.14-18.165z" clip-path="url(#a)" fill="#74e394" fill-rule="evenodd"/></clipPath></defs><g fill-rule="evenodd"><path d="M3718.627 481.71l175.402-112.523 383.898 301.163-536.135-29.785z" fill="#b0a5ab"/><path d="M4468.48 133.236l90.82 181.646-50.86 116.253 475.912 54.493-352.393-381.455z" clip-path="url(#b)" transform="translate(-186.555 234.575) scale(.91097)" fill="#c4b9bf"/><path d="M2923.508 521.623l245.716-255.077 100.627 28.082 255.078 290.18z" fill="#9c9197"/><path d="M3649.257.635l163.48 183.462-41.777 103.538 274.284 152.582L4016.18.635z" clip-path="url(#c)" transform="translate(-186.555 234.575) scale(.91097)" fill="#baafb5"/><path d="M1189.455 486.52L950.76 306.33 618.456 451.42 517.83 662.032l643.543 37.442z" fill="#9c9197"/><path d="M1048.288 394.668l105.323-77.066 172.115 84.773-143.856 113.03z" fill="#baafb5"/><path d="M1111.864 483.674l41.747-166.072 172.115 84.773-143.856 113.03s-17.33 6.415-70.006-31.73z" fill="#c4b9bf"/><path d="M1246.088 71.477l50.86 125.335-159.847 58.127L1271.52 449.3l283.367-205.26L1275.15 42.413z" clip-path="url(#d)" transform="translate(-186.555 234.575) scale(.91097)" fill="#b0a5af"/><path d="M2209.762 479.5l168.49-128.708 102.967 46.803 65.524-102.967 95.946-37.442 93.606-135.73L2895.426 194l276.138 315.923L2801.82 765z" fill="#9c919b"/><path d="M3206.043-124.7L3309.58 15.167l69.026 330.594 408.702 5.45-490.443-552.2z" clip-path="url(#e)" transform="translate(-186.555 234.575) scale(.91097)" fill="#b0a5af"/><path d="M925.42 686.708l114.666-95.947L1616.566 10l174.71 157.193 82.307 14.04L2406.736 558 1056.468 745.21z" fill="#a69ba1"/><path d="M1371.46 631.456l22.065-85.076 22.486 85.076z" fill="#4c9a6e"/><path d="M2104.363-65.666l233.414 400.53 428.683 127.15 263.386-225.24-862.816-401.436z" clip-path="url(#f)" transform="translate(-186.555 234.575) scale(.91097)" fill="#baafb5"/><path d="M3211.61 668.267l260.61-206.72 365.967 237.143z" fill="#b3c8f1"/><path d="M3477.218 697.52l-4.998-235.145 365.967 236.315z" fill="#bdd2f1"/><path d="M3330.96 641.356l314.75-243.962 311.825 274.384z" fill="#b3c8f1"/><path d="M3699.533 717.41l-53.824-320.016 311.825 274.384z" fill="#bdd2f1"/><path d="M2885.837 576.494l37.994-137.98 38.718 137.98z" fill="#4c9a6e"/><path d="M3480.465 619.91l-267.948-222.315L2956.27 640.97z" fill="#bcd2fb"/><path d="M3480.465 619.91l-267.948-222.315 36.273 234.016z" fill="#c7dcfb"/><path d="M1805.75 670.35l222.562-239.11 366.524 267.24z" fill="#b3c8f1"/><path d="M2584.815 522.866l-153.49-306.98 391.446 282.457z" clip-path="url(#g)" transform="translate(-186.555 234.575) scale(.91097)" fill="#bdd2f1"/><path d="M2135.145 663.49l-337.128-315.806-325.58 298.588z" fill="#bdd2fb"/><path d="M2178.523 124.163s100.05 383.602 118.033 378.464c17.982-5.137 238.904-97.616 238.904-97.616L2150.13 37.665z" clip-path="url(#h)" transform="translate(-186.555 234.575) scale(.91097)" fill="#c7dcfb"/><path d="M2366.6 559.9l23.234-65.434 23.677 65.435zM2924.265 563.266l30.26-109.898 30.84 109.898z" fill="#56a478"/><path d="M2923.978 576.494l-.147-137.98 38.718 137.98z" fill="#60ae82"/><path d="M2963.848 577.664l30.26-109.898 30.84 109.898z" fill="#429064"/><path d="M2954.644 563.266l-.118-109.898 30.838 109.898z" fill="#6ab88c"/><path d="M2986.08 579.92l30.26-95.004 30.838 95.005z" fill="#429064"/><path d="M2994.227 577.664l-.118-109.898 30.837 109.898z" fill="#56a478"/><path d="M3016.458 579.92l-.118-95.004 30.838 95.005z" fill="#56a478"/><path d="M4258.088 867.986C2490.432 43.302 1460.843 966.83 1285.413 681.97l1246.682 186.016z" fill="#5ed582"/><path d="M1393.61 631.456l-.085-85.076 22.486 85.076z" fill="#60ae82"/><path d="M2390.595 547.49l23.233-77.845 23.676 77.845z" fill="#56a478"/><path d="M2343.89 562.1l30.262-61.91 30.838 61.91z" fill="#4c9a6e"/><path d="M2388.832 559.9l1.002-65.434 23.677 65.435z" fill="#6ab88c"/><path d="M2410.08 586.094l30.262-109.898 30.837 109.898z" fill="#4c9a6e"/><path d="M2412.826 547.49l1.002-77.845 23.676 77.845z" fill="#6ab88c"/><path d="M2440.46 586.094l-.118-109.898 30.837 109.898zM2374.27 562.1l-.118-61.91 30.838 61.91z" fill="#60ae82"/><path d="M1391.35 623.266l22.067-85.077 22.486 85.076z" fill="#4c9a6e"/><path d="M1413.502 623.266l-.086-85.077 22.486 85.076z" fill="#60ae82"/><path d="M1417.01 605.273l22.067-72.102 22.486 72.103z" fill="#429064"/><path d="M3451.264 696.337c-372.167 52.992-529.91 250.05-595.797 417.785l-1322.38-163.48 1398.67-446.85z" clip-path="url(#i)" transform="translate(-186.555 -181.783) scale(.91097)" fill="#56cb78"/><path d="M3287.074 648.242l30.26-109.898 30.84 109.898z" fill="#56a478"/><path d="M3207.49 685.815c153.69-379.38 1308.6-352.202 2103.67 16.547z" clip-path="url(#j)" transform="translate(-236.14 172.046)" fill="#6ed99b"/><path d="M3314.146 655.824l41.735-95.005 42.532 95.004z" fill="#429064"/><path d="M3317.453 648.242l-.118-109.898 30.838 109.898z" fill="#6ab88c"/><path d="M3356.044 655.824l-.163-95.005 42.532 95.004z" fill="#56a478"/><path d="M4666.17 795.778c-130.155 110.738-212.5 230.147-274.913 384.876l-747.76-14.662 487.51-505.837z" clip-path="url(#k)" transform="translate(-454.623 -191.908) scale(.91097)" fill="#5dce95"/><path d="M1439.163 605.273l-.086-72.102 22.486 72.103z" fill="#56a478"/><path d="M3185.178 702.362l-3225.14 18.165c1253.934-595.85 2772.228-160.35 3225.14-18.165z" clip-path="url(#a)" transform="translate(-236.14 172.046)" fill="#74e394"/><path d="M1445.875 598.694l23.863-67.342 24.32 67.342z" fill="#4c9a6e"/><path d="M1469.83 598.694l-.092-67.342 24.318 67.342z" fill="#60ae82"/><path d="M1788.822 88.385C790.01 441.685 472.464 916.855 201.926 1571.95c0 0-542.187-1351.063-521.452-1351.063 20.735 0 1981.652-280.935 1981.652-280.935z" clip-path="url(#l)" transform="translate(-186.555 233.667) scale(.91097)" fill="#6ed98b"/><path d="M2919.388 592.578c29.786-16.548 274.687-190.296 274.687-190.296l62.88 28.13 102.594-91.01 506.348 335.913-693.335 84.39z" fill="none"/><path d="M1617.11 11.763l80.254 193.605 164.647 22.34z" fill="#baafb5"/><path d="M6.56 702.362s539.358-145.048 1164.936-86.046c1661.575 156.71 2528.6-223.37 4143.465 86.046z" clip-path="url(#m)" transform="translate(-236.14 172.046)" fill="#56ac78"/><path d="M3098.43 11.002l54.46 101.39-202.124-60.456z" clip-path="url(#n)" transform="translate(-186.555 234.575) scale(.91097)" fill="#b0a5af"/><path d="M2808.24 114.163l122.61 192.545-1.817-154.4z" clip-path="url(#o)" transform="translate(-186.555 234.575) scale(.91097)" fill="#b0a5af"/><path d="M1609.558 626.808l23.234-65.435 23.676 65.435z" fill="#56a478"/><path d="M1631.79 626.808l1.002-65.435 23.676 65.435z" fill="#6ab88c"/><path d="M857.71 636.168l30.26-109.898 30.84 109.898z" fill="#429064"/><path d="M888.09 636.168l-.12-109.898 30.84 109.898z" fill="#56a478"/><path d="M877.986 688.822l37.993-137.98 38.717 137.98z" fill="#4c9a6e"/><path d="M916.127 688.822l-.148-137.98 38.717 137.98z" fill="#60ae82"/><path d="M2194.137 600.71l30.26-109.9 30.84 109.9z" fill="#56a478"/><path d="M2224.516 600.71l-.118-109.9 30.838 109.9z" fill="#6ab88c"/><path d="M2222.02 624.384l30.26-95.005 30.838 95.004z" fill="#429064"/><path d="M2252.398 624.384l-.118-95.005 30.838 95.004z" fill="#56a478"/><path d="M1472.67 609.81l22.067-85.077 22.486 85.077z" fill="#4c9a6e"/><path d="M1494.823 609.81l-.086-85.077 22.486 85.077z" fill="#60ae82"/><path d="M1495.837 629.667L1526.1 519.77l30.837 109.897z" fill="#56a478"/><path d="M1526.216 629.667l-.117-109.898 30.837 109.897z" fill="#6ab88c"/><path d="M1522.313 647.87l30.262-109.9 30.837 109.9z" fill="#4c9a6e"/><path d="M1552.692 647.87l-.117-109.9 30.837 109.9z" fill="#60ae82"/><path d="M1778.944 728.605l37.994-137.98 38.718 137.98z" fill="#4c9a6e"/><path d="M1817.086 728.605l-.148-137.98 38.718 137.98z" fill="#60ae82"/><path d="M2686.924 557.788l26.403-95.887 26.907 95.888z" fill="#4c9a6e"/><path d="M2713.43 557.788l-.103-95.887 26.907 95.888z" fill="#60ae82"/><path d="M2718.33 574.967l30.263-109.898 30.837 109.897z" fill="#56a478"/><path d="M2748.71 574.967l-.117-109.898 30.837 109.897z" fill="#6ab88c"/><path d="M1889.55 653.432l23.706-86.087 24.156 86.087z" fill="#56a478"/><path d="M1913.348 653.432l-.092-86.087 24.156 86.087z" fill="#6ab88c"/><path d="M3263.387 673.61l30.26-109.897 30.84 109.898z" fill="#429064"/><path d="M3293.766 673.61l-.118-109.897 30.838 109.898z" fill="#56a478"/><path d="M3998.195 622.044l30.26-95.005 30.84 95.004z" fill="#429064"/><path d="M4028.574 622.044l-.118-95.005 30.838 95.004z" fill="#56a478"/><path d="M4036.808 636.085l30.26-95.005 30.84 95.005z" fill="#429064"/><path d="M4067.187 636.085l-.118-95.005 30.837 95.005z" fill="#56a478"/><path d="M4112.863 640.765l30.26-95.005 30.84 95.005z" fill="#429064"/><path d="M4068.6 659.213l39.533-112.238 40.287 112.238zM4143.242 640.765l-.118-95.005 30.838 95.005z" fill="#56a478"/><path d="M4108.287 659.213l-.154-112.238 40.287 112.238z" fill="#6ab88c"/><path d="M3386.333 90.244c15.058 29.673 41.575 36.23 54.795 14.255 12.986 22.963 41.065 17.41 58.038-14.053-20.376 17.544-39.473 22.11-58.464-4.95-18.334 25.87-35.51 22.126-54.37 4.747z" fill="none" stroke-width=".784"/></g><path d="M6157.78 73.352a7.266 1.816 0 0 1-7.264 1.816v-1.816z" fill="#79a1ff" stroke-width="3"/><g fill-rule="evenodd"><path d="M3718.627 481.71l175.402-112.523 383.898 301.163-536.135-29.785z" fill="#b0a5ab"/><path transform="translate(-186.555 234.575) scale(.91097)" clip-path="url(#b)" d="M4468.48 133.236l90.82 181.646-50.86 116.253 475.912 54.493-352.393-381.455z" fill="#c4b9bf"/><path d="M2923.508 521.623l245.716-255.077 100.627 28.082 255.078 290.18z" fill="#9c9197"/><path transform="translate(-186.555 234.575) scale(.91097)" clip-path="url(#c)" d="M3649.257.635l163.48 183.462-41.777 103.538 274.284 152.582L4016.18.635z" fill="#baafb5"/><path d="M1189.455 486.52L950.76 306.33 618.456 451.42 517.83 662.032l643.543 37.442z" fill="#9c9197"/><path d="M1048.288 394.668l105.323-77.066 172.115 84.773-143.856 113.03z" fill="#baafb5"/><path d="M1111.864 483.674l41.747-166.072 172.115 84.773-143.856 113.03s-17.33 6.415-70.006-31.73z" fill="#c4b9bf"/><path transform="translate(-186.555 234.575) scale(.91097)" clip-path="url(#d)" d="M1246.088 71.477l50.86 125.335-159.847 58.127L1271.52 449.3l283.367-205.26L1275.15 42.413z" fill="#b0a5af"/><path d="M2209.762 479.5l168.49-128.708 102.967 46.803 65.524-102.967 95.946-37.442 93.606-135.73L2895.426 194l276.138 315.923L2801.82 765z" fill="#9c919b"/><path transform="translate(-186.555 234.575) scale(.91097)" clip-path="url(#e)" d="M3206.043-124.7L3309.58 15.167l69.026 330.594 408.702 5.45-490.443-552.2z" fill="#b0a5af"/><path d="M925.42 686.708l114.666-95.947L1616.566 10l174.71 157.193 82.307 14.04L2406.736 558 1056.468 745.21z" fill="#a69ba1"/><path d="M1371.46 631.456l22.065-85.076 22.486 85.076z" fill="#4c9a6e"/><path transform="translate(-186.555 234.575) scale(.91097)" clip-path="url(#f)" d="M2104.363-65.666l233.414 400.53 428.683 127.15 263.386-225.24-862.816-401.436z" fill="#baafb5"/><path d="M3211.61 668.267l260.61-206.72 365.967 237.143z" fill="#b3c8f1"/><path d="M3477.218 697.52l-4.998-235.145 365.967 236.315z" fill="#bdd2f1"/><path d="M3330.96 641.356l314.75-243.962 311.825 274.384z" fill="#b3c8f1"/><path d="M3699.533 717.41l-53.824-320.016 311.825 274.384z" fill="#bdd2f1"/><path d="M2885.837 576.494l37.994-137.98 38.718 137.98z" fill="#4c9a6e"/><path d="M3480.465 619.91l-267.948-222.315L2956.27 640.97z" fill="#bcd2fb"/><path d="M3480.465 619.91l-267.948-222.315 36.273 234.016z" fill="#c7dcfb"/><path d="M1805.75 670.35l222.562-239.11 366.524 267.24z" fill="#b3c8f1"/><path transform="translate(-186.555 234.575) scale(.91097)" clip-path="url(#g)" d="M2584.815 522.866l-153.49-306.98 391.446 282.457z" fill="#bdd2f1"/><path d="M2135.145 663.49l-337.128-315.806-325.58 298.588z" fill="#bdd2fb"/><path transform="translate(-186.555 234.575) scale(.91097)" clip-path="url(#h)" d="M2178.523 124.163s100.05 383.602 118.033 378.464c17.982-5.137 238.904-97.616 238.904-97.616L2150.13 37.665z" fill="#c7dcfb"/><path d="M2366.6 559.9l23.234-65.434 23.677 65.435zM2924.265 563.266l30.26-109.898 30.84 109.898z" fill="#56a478"/><path d="M2923.978 576.494l-.147-137.98 38.718 137.98z" fill="#60ae82"/><path d="M2963.848 577.664l30.26-109.898 30.84 109.898z" fill="#429064"/><path d="M2954.644 563.266l-.118-109.898 30.838 109.898z" fill="#6ab88c"/><path d="M2986.08 579.92l30.26-95.004 30.838 95.005z" fill="#429064"/><path d="M2994.227 577.664l-.118-109.898 30.837 109.898z" fill="#56a478"/><path d="M3016.458 579.92l-.118-95.004 30.838 95.005z" fill="#56a478"/><path d="M4258.088 867.986C2490.432 43.302 1460.843 966.83 1285.413 681.97l1246.682 186.016z" fill="#5ed582"/><path d="M1393.61 631.456l-.085-85.076 22.486 85.076z" fill="#60ae82"/><path d="M2390.595 547.49l23.233-77.845 23.676 77.845z" fill="#56a478"/><path d="M2343.89 562.1l30.262-61.91 30.838 61.91z" fill="#4c9a6e"/><path d="M2388.832 559.9l1.002-65.434 23.677 65.435z" fill="#6ab88c"/><path d="M2410.08 586.094l30.262-109.898 30.837 109.898z" fill="#4c9a6e"/><path d="M2412.826 547.49l1.002-77.845 23.676 77.845z" fill="#6ab88c"/><path d="M2440.46 586.094l-.118-109.898 30.837 109.898zM2374.27 562.1l-.118-61.91 30.838 61.91z" fill="#60ae82"/><path d="M1391.35 623.266l22.067-85.077 22.486 85.076z" fill="#4c9a6e"/><path d="M1413.502 623.266l-.086-85.077 22.486 85.076z" fill="#60ae82"/><path d="M1417.01 605.273l22.067-72.102 22.486 72.103z" fill="#429064"/><path transform="translate(-186.555 -181.783) scale(.91097)" clip-path="url(#i)" d="M3451.264 696.337c-372.167 52.992-529.91 250.05-595.797 417.785l-1322.38-163.48 1398.67-446.85z" fill="#56cb78"/><path d="M3287.074 648.242l30.26-109.898 30.84 109.898z" fill="#56a478"/><path transform="translate(-236.14 172.046)" clip-path="url(#j)" d="M3207.49 685.815c153.69-379.38 1308.6-352.202 2103.67 16.547z" fill="#6ed99b"/><path d="M3314.146 655.824l41.735-95.005 42.532 95.004z" fill="#429064"/><path d="M3317.453 648.242l-.118-109.898 30.838 109.898z" fill="#6ab88c"/><path d="M3356.044 655.824l-.163-95.005 42.532 95.004z" fill="#56a478"/><path transform="translate(-454.623 -191.908) scale(.91097)" clip-path="url(#k)" d="M4666.17 795.778c-130.155 110.738-212.5 230.147-274.913 384.876l-747.76-14.662 487.51-505.837z" fill="#5dce95"/><path d="M1439.163 605.273l-.086-72.102 22.486 72.103z" fill="#56a478"/><path transform="translate(-236.14 172.046)" clip-path="url(#a)" d="M3185.178 702.362l-3225.14 18.165c1253.934-595.85 2772.228-160.35 3225.14-18.165z" fill="#74e394"/><path d="M1445.875 598.694l23.863-67.342 24.32 67.342z" fill="#4c9a6e"/><path d="M1469.83 598.694l-.092-67.342 24.318 67.342z" fill="#60ae82"/><path transform="translate(-186.555 233.667) scale(.91097)" clip-path="url(#l)" d="M1788.822 88.385C790.01 441.685 472.464 916.855 201.926 1571.95c0 0-542.187-1351.063-521.452-1351.063 20.735 0 1981.652-280.935 1981.652-280.935z" fill="#6ed98b"/><path d="M2919.388 592.578c29.786-16.548 274.687-190.296 274.687-190.296l62.88 28.13 102.594-91.01 506.348 335.913-693.335 84.39z" fill="none"/><path d="M1617.11 11.763l80.254 193.605 164.647 22.34z" fill="#baafb5"/><path transform="translate(-236.14 172.046)" clip-path="url(#m)" d="M6.56 702.362s539.358-145.048 1164.936-86.046c1661.575 156.71 2528.6-223.37 4143.465 86.046z" fill="#56ac78"/><path transform="translate(-186.555 234.575) scale(.91097)" clip-path="url(#n)" d="M3098.43 11.002l54.46 101.39-202.124-60.456z" fill="#b0a5af"/><path transform="translate(-186.555 234.575) scale(.91097)" clip-path="url(#o)" d="M2808.24 114.163l122.61 192.545-1.817-154.4z" fill="#b0a5af"/><path d="M1609.558 626.808l23.234-65.435 23.676 65.435z" fill="#56a478"/><path d="M1631.79 626.808l1.002-65.435 23.676 65.435z" fill="#6ab88c"/><path d="M857.71 636.168l30.26-109.898 30.84 109.898z" fill="#429064"/><path d="M888.09 636.168l-.12-109.898 30.84 109.898z" fill="#56a478"/><path d="M877.986 688.822l37.993-137.98 38.717 137.98z" fill="#4c9a6e"/><path d="M916.127 688.822l-.148-137.98 38.717 137.98z" fill="#60ae82"/><path d="M2194.137 600.71l30.26-109.9 30.84 109.9z" fill="#56a478"/><path d="M2224.516 600.71l-.118-109.9 30.838 109.9z" fill="#6ab88c"/><path d="M2222.02 624.384l30.26-95.005 30.838 95.004z" fill="#429064"/><path d="M2252.398 624.384l-.118-95.005 30.838 95.004z" fill="#56a478"/><path d="M1472.67 609.81l22.067-85.077 22.486 85.077z" fill="#4c9a6e"/><path d="M1494.823 609.81l-.086-85.077 22.486 85.077z" fill="#60ae82"/><path d="M1495.837 629.667L1526.1 519.77l30.837 109.897z" fill="#56a478"/><path d="M1526.216 629.667l-.117-109.898 30.837 109.897z" fill="#6ab88c"/><path d="M1522.313 647.87l30.262-109.9 30.837 109.9z" fill="#4c9a6e"/><path d="M1552.692 647.87l-.117-109.9 30.837 109.9z" fill="#60ae82"/><path d="M1778.944 728.605l37.994-137.98 38.718 137.98z" fill="#4c9a6e"/><path d="M1817.086 728.605l-.148-137.98 38.718 137.98z" fill="#60ae82"/><path d="M2686.924 557.788l26.403-95.887 26.907 95.888z" fill="#4c9a6e"/><path d="M2713.43 557.788l-.103-95.887 26.907 95.888z" fill="#60ae82"/><path d="M2718.33 574.967l30.263-109.898 30.837 109.897z" fill="#56a478"/><path d="M2748.71 574.967l-.117-109.898 30.837 109.897z" fill="#6ab88c"/><path d="M1889.55 653.432l23.706-86.087 24.156 86.087z" fill="#56a478"/><path d="M1913.348 653.432l-.092-86.087 24.156 86.087z" fill="#6ab88c"/><path d="M3263.387 673.61l30.26-109.897 30.84 109.898z" fill="#429064"/><path d="M3293.766 673.61l-.118-109.897 30.838 109.898z" fill="#56a478"/><path d="M3998.195 622.044l30.26-95.005 30.84 95.004z" fill="#429064"/><path d="M4028.574 622.044l-.118-95.005 30.838 95.004z" fill="#56a478"/><path d="M4036.808 636.085l30.26-95.005 30.84 95.005z" fill="#429064"/><path d="M4067.187 636.085l-.118-95.005 30.837 95.005z" fill="#56a478"/><path d="M4112.863 640.765l30.26-95.005 30.84 95.005z" fill="#429064"/><path d="M4068.6 659.213l39.533-112.238 40.287 112.238zM4143.242 640.765l-.118-95.005 30.838 95.005z" fill="#56a478"/><path d="M4108.287 659.213l-.154-112.238 40.287 112.238z" fill="#6ab88c"/><path d="M3386.333 90.244c15.058 29.673 41.575 36.23 54.795 14.255 12.986 22.963 41.065 17.41 58.038-14.053-20.376 17.544-39.473 22.11-58.464-4.95-18.334 25.87-35.51 22.126-54.37 4.747z" fill="none" stroke-width=".784"/></g></svg>