<svg xmlns="http://www.w3.org/2000/svg" width="2606.17" height="3845.29" viewBox="0 0 2606.17 3845.2902"><defs><clipPath id="j"><path d="M4879.016 1152.36c-1940.41-905.278-3070.618 108.503-3263.193-204.195l1368.52 204.194z" fill="#5ed582" fill-rule="evenodd"/></clipPath><clipPath id="i"><path d="M2548.6 470.83l-370.077-346.667-357.397 327.768z" fill="#bdd2fb" fill-rule="evenodd"/></clipPath><clipPath id="h"><path d="M2187.01 478.363l244.315-262.478 415.06 249.762z" fill="#b3c8f1" fill-rule="evenodd"/></clipPath><clipPath id="g"><path d="M1146.15 385.858l200.37 5.137 632.82-637.516 191.783 172.553 90.35 15.413 585.26 413.585-1482.23 205.51z" fill="#a69ba1" fill-rule="evenodd"/></clipPath><clipPath id="f"><path d="M2630.507 268.86l184.958-141.286 113.03 51.378 71.927-113.03 105.324-41.102L3208.5-124.173l174.682 79.634 303.125 346.797-405.88 280.005z" fill="#9c919b" fill-rule="evenodd"/></clipPath><clipPath id="o"><path d="M2630.507 268.86l184.958-141.286 113.03 51.378 71.927-113.03 105.324-41.102L3208.5-124.173l174.682 79.634 303.125 346.797-405.88 280.005z" fill="#9c919b" fill-rule="evenodd"/></clipPath><clipPath id="p"><path d="M2630.507 268.86l184.958-141.286 113.03 51.378 71.927-113.03 105.324-41.102L3208.5-124.173l174.682 79.634 303.125 346.797-405.88 280.005z" fill="#9c919b" fill-rule="evenodd"/></clipPath><clipPath id="e"><path d="M1510.487 276.568L1248.463 78.766l-364.777 159.27-110.46 231.196 706.434 41.102z" fill="#9c9197" fill-rule="evenodd"/></clipPath><clipPath id="d"><path d="M3414.008 315.1l269.73-280.004 110.46 30.826 280.006 318.538z" fill="#9c9197" fill-rule="evenodd"/></clipPath><clipPath id="l"><path d="M3760.793 1152.36c168.71-416.457 1436.488-386.622 2309.26 18.164z" fill="#6ed99b" fill-rule="evenodd"/></clipPath><clipPath id="c"><path d="M4286.833 271.287l192.544-123.52 421.418 330.596-588.532-32.697z" fill="#b0a5ab" fill-rule="evenodd"/></clipPath><clipPath id="n"><path fill="#b7d8f0" stroke-width="10" d="M241.277-927.828h4877.04v1625.69H241.277z"/></clipPath><clipPath id="k"><path fill="#b7d8f0" stroke-width="10" d="M241.277-927.828h4877.04v1625.69H241.277z"/></clipPath><clipPath id="a"><path fill="#b7d8f0" stroke-width="10" d="M241.277-927.828h4877.04v1625.69H241.277z"/></clipPath><clipPath id="m"><path clip-path="url(#a)" d="M3185.178 702.362l-3225.14 18.165c1253.934-595.85 2772.228-160.35 3225.14-18.165z" transform="matrix(1.09773 0 0 1.09773 -54.43 -67.643)" fill="#74e394" fill-rule="evenodd"/></clipPath><clipPath id="b"><path transform="scale(1 -1)" fill="#b7d8f0" stroke-width="10" d="M775.794-1047.858h2606.172v3845.29H775.794z"/></clipPath></defs><path stroke-width="10" stroke-linecap="round" stroke-linejoin="round" d="M-2383.897-501.212h2055.084v1875.264h-2055.084z"/><path fill="#b7d8f0" stroke-width="10" d="M0 3845.29h2606.172V0H0z"/><path d="M-1391.89 695.487c-73.497-14.318-122.347 11.873-175.74 49.537h370.35c-28.397-97.056-155.827-108.396-194.61-49.537zM-987.874 625.98h207.584c-23.03-65.11-115.555-82.763-146.252-28.307-18.078-7.07-53.736-5.606-61.332 28.307zM-1579.414 409.158h238.25c-2.698-42.6-47.222-77.672-87.28-51.896-34.074-41.062-105.266-17.03-101.433 28.307-20.08-17.112-48.1-3.578-49.537 23.588zM-1335.516-130h351.477c-39.94-63.725-107.988-94.112-162.764-56.613-66.19-66.952-144.082-28.24-188.712 56.614z" fill="#ecf0f1" fill-rule="evenodd"/><path d="M6157.78 3047.867a7.266 1.816 0 0 1-7.264 1.816v-1.816z" fill="#79a1ff" stroke-width="3"/><path d="M-644.714 1000.04H-996.19c39.94-63.727 107.988-94.114 162.764-56.615 66.19-66.952 144.083-28.24 188.712 56.614zM-1138.003 343.94h408.448c-20.13-118.933-129.885-75.783-129.727-75.78-12.976-123.098-230.05-98.48-192.664 26.973-34.302-25.453-87.942-20.936-86.057 48.808zM-1458.783 1047.142h-214.34c.194-44.867 63.713-57.076 76.29-39.962 24.69-61.408 125.104-26.1 138.05 39.962zM-2135.274-108.468h472.28c-38.498-88.296-111.863-92.25-167.115-70.842-21.852-81.736-162.592-88.123-189.975 12.403-41.142-.357-103.354 15.787-115.19 58.44z" fill="#ecf0f1" fill-rule="evenodd"/><g clip-path="url(#b)" transform="translate(-775.794 2797.432)" fill-rule="evenodd"><path d="M3713.49 659.664l175.4-112.522 383.9 301.163-536.135-29.786z" fill="#b0a5ab"/><path d="M4468.48 133.236l90.82 181.646-50.86 116.253 475.912 54.493-352.393-381.455z" clip-path="url(#c)" transform="translate(-191.693 412.53) scale(.91097)" fill="#c4b9bf"/><path d="M2918.37 699.578L3164.088 444.5l100.626 28.082 255.077 290.18z" fill="#9c9197"/><path d="M3649.257.635l163.48 183.462-41.777 103.538 274.284 152.582L4016.18.635z" clip-path="url(#d)" transform="translate(-191.693 412.53) scale(.91097)" fill="#baafb5"/><path d="M1184.317 664.475L945.62 484.283l-332.3 145.09-100.627 210.614 643.542 37.443z" fill="#9c9197"/><path d="M1043.15 572.622l105.324-77.065 172.113 84.772-143.856 113.03z" fill="#baafb5"/><path d="M1106.726 661.63l41.748-166.073 172.113 84.772-143.856 113.03s-17.326 6.414-70.004-31.73z" fill="#c4b9bf"/><path d="M1246.088 71.477l50.86 125.335-159.847 58.127L1271.52 449.3l283.367-205.26L1275.15 42.413z" clip-path="url(#e)" transform="translate(-191.693 412.53) scale(.91097)" fill="#b0a5af"/><path d="M2204.624 657.455l168.49-128.71 102.968 46.804 65.524-102.968 95.946-37.442 93.606-135.73 159.13 72.546 276.14 315.92-369.745 255.078z" fill="#9c919b"/><path d="M3206.043-124.7L3309.58 15.167l69.026 330.594 408.702 5.45-490.443-552.2z" clip-path="url(#f)" transform="translate(-191.693 412.53) scale(.91097)" fill="#b0a5af"/><path d="M920.28 864.662l114.67-95.946 576.48-580.76 174.708 157.19 82.307 14.042 533.153 376.765L1051.33 923.166z" fill="#a69ba1"/><path d="M1366.322 809.41l22.066-85.076 22.486 85.077z" fill="#4c9a6e"/><path d="M2104.363-65.666l233.414 400.53 428.683 127.15 263.386-225.24-862.816-401.436z" clip-path="url(#g)" transform="translate(-191.693 412.53) scale(.91097)" fill="#baafb5"/><path d="M3206.473 846.222l260.61-206.72 365.966 237.142z" fill="#b3c8f1"/><path d="M3472.08 875.474l-4.998-235.144 365.967 236.314z" fill="#bdd2f1"/><path d="M3325.82 819.31l314.752-243.96 311.825 274.382z" fill="#b3c8f1"/><path d="M3694.395 895.365L3640.57 575.35 3952.4 849.73z" fill="#bdd2f1"/><path d="M2880.7 754.45l37.993-137.98 38.718 137.98z" fill="#4c9a6e"/><path d="M3475.327 797.864L3207.38 575.55l-256.247 243.376z" fill="#bcd2fb"/><path d="M3475.327 797.864L3207.38 575.55l36.272 234.015z" fill="#c7dcfb"/><path d="M1800.612 848.305l222.562-239.11 366.525 267.24z" fill="#b3c8f1"/><path d="M2584.815 522.866l-153.49-306.98 391.446 282.457z" clip-path="url(#h)" transform="translate(-191.693 412.53) scale(.91097)" fill="#bdd2f1"/><path d="M2130.007 841.443L1792.88 525.638 1467.3 824.226z" fill="#bdd2fb"/><path d="M2178.523 124.163s100.05 383.602 118.033 378.464c17.982-5.137 238.904-97.616 238.904-97.616L2150.13 37.665z" clip-path="url(#i)" transform="translate(-191.693 412.53) scale(.91097)" fill="#c7dcfb"/><path d="M2361.463 737.855l23.234-65.435 23.676 65.435zM2919.127 741.22l30.26-109.897 30.84 109.898z" fill="#56a478"/><path d="M2918.84 754.45l-.147-137.98 38.718 137.98z" fill="#60ae82"/><path d="M2958.71 755.62l30.26-109.9 30.84 109.9z" fill="#429064"/><path d="M2949.506 741.22l-.118-109.897 30.838 109.898z" fill="#6ab88c"/><path d="M2980.94 757.876l30.263-95.006 30.837 95.006z" fill="#429064"/><path d="M2989.09 755.62l-.12-109.9 30.84 109.9z" fill="#56a478"/><path d="M3011.32 757.876l-.117-95.006 30.837 95.006z" fill="#56a478"/><path d="M4252.95 1045.94c-1767.656-824.683-2797.244 98.844-2972.675-186.015l1246.682 186.015z" fill="#5ed582"/><path d="M1388.473 809.41l-.086-85.076 22.486 85.077z" fill="#60ae82"/><path d="M2385.457 725.445l23.234-77.846 23.677 77.845z" fill="#56a478"/><path d="M2338.753 740.054l30.26-61.91 30.84 61.91z" fill="#4c9a6e"/><path d="M2383.695 737.855l1.002-65.435 23.676 65.435z" fill="#6ab88c"/><path d="M2404.943 764.048l30.26-109.898 30.84 109.898z" fill="#4c9a6e"/><path d="M2407.688 725.445l1.002-77.846 23.677 77.845z" fill="#6ab88c"/><path d="M2435.32 764.048l-.116-109.898 30.838 109.898zM2369.132 740.054l-.118-61.91 30.838 61.91z" fill="#60ae82"/><path d="M1386.213 801.22l22.066-85.076 22.485 85.076z" fill="#4c9a6e"/><path d="M1408.365 801.22l-.086-85.076 22.485 85.076z" fill="#60ae82"/><path d="M1411.874 783.228l22.065-72.102 22.485 72.102z" fill="#429064"/><path d="M3451.264 696.337c-372.167 52.992-529.91 250.05-595.797 417.785l-1322.38-163.48 1398.67-446.85z" clip-path="url(#j)" transform="translate(-191.693 -3.828) scale(.91097)" fill="#56cb78"/><path d="M3281.936 826.196l30.262-109.897 30.838 109.896z" fill="#56a478"/><path d="M3207.49 685.815c153.69-379.38 1308.6-352.202 2103.67 16.547z" clip-path="url(#k)" transform="translate(-241.277 350)" fill="#6ed99b"/><path d="M3309.008 833.78l41.736-95.006 42.53 95.005z" fill="#429064"/><path d="M3312.315 826.196l-.117-109.897 30.838 109.896z" fill="#6ab88c"/><path d="M3350.906 833.78l-.162-95.006 42.53 95.005z" fill="#56a478"/><path d="M4666.17 795.778c-130.155 110.738-212.5 230.147-274.913 384.876l-747.76-14.662 487.51-505.837z" clip-path="url(#l)" transform="translate(-459.76 -13.953) scale(.91097)" fill="#5dce95"/><path d="M1434.025 783.228l-.086-72.102 22.485 72.102z" fill="#56a478"/><path d="M3185.178 702.362l-3225.14 18.165c1253.934-595.85 2772.228-160.35 3225.14-18.165z" clip-path="url(#a)" transform="translate(-241.277 350)" fill="#74e394"/><path d="M1440.737 776.65l23.864-67.343 24.32 67.342z" fill="#4c9a6e"/><path d="M1464.693 776.65l-.093-67.343 24.32 67.342z" fill="#60ae82"/><path d="M1788.822 88.385C790.01 441.685 472.464 916.855 201.926 1571.95c0 0-542.187-1351.063-521.452-1351.063 20.735 0 1981.652-280.935 1981.652-280.935z" clip-path="url(#m)" transform="translate(-181.613 410.985) scale(.91097)" fill="#6ed98b"/><path d="M2914.25 770.532c29.786-16.548 274.687-190.295 274.687-190.295l62.88 28.13 102.594-91.01 506.35 335.912-693.335 84.39z" fill="none"/><path d="M1611.972 189.718l80.255 193.604 164.646 22.34z" fill="#baafb5"/><path d="M6.56 702.362s539.358-145.048 1164.936-86.046c1661.575 156.71 2528.6-223.37 4143.465 86.046z" clip-path="url(#n)" transform="translate(-241.277 350)" fill="#56ac78"/><path d="M3098.43 11.002l54.46 101.39-202.124-60.456z" clip-path="url(#o)" transform="translate(-191.693 412.53) scale(.91097)" fill="#b0a5af"/><path d="M2808.24 114.163l122.61 192.545-1.817-154.4z" clip-path="url(#p)" transform="translate(-191.693 412.53) scale(.91097)" fill="#b0a5af"/><path d="M1604.42 804.762l23.234-65.435 23.676 65.435z" fill="#56a478"/><path d="M1626.652 804.762l1.002-65.435 23.676 65.435z" fill="#6ab88c"/><path d="M852.572 814.123l30.26-109.898 30.84 109.898z" fill="#429064"/><path d="M882.95 814.123l-.117-109.898 30.838 109.898z" fill="#56a478"/><path d="M872.848 866.776l37.994-137.98 38.717 137.98z" fill="#4c9a6e"/><path d="M910.99 866.776l-.148-137.98 38.717 137.98z" fill="#60ae82"/><path d="M2189 778.663l30.26-109.898 30.838 109.898z" fill="#56a478"/><path d="M2219.378 778.663l-.117-109.898 30.838 109.898z" fill="#6ab88c"/><path d="M2216.88 802.34l30.263-95.007 30.837 95.006z" fill="#429064"/><path d="M2247.26 802.34l-.117-95.007 30.837 95.006z" fill="#56a478"/><path d="M1467.534 787.764l22.065-85.076 22.485 85.076z" fill="#4c9a6e"/><path d="M1489.685 787.764l-.086-85.076 22.485 85.076z" fill="#60ae82"/><path d="M1490.7 807.62l30.26-109.897 30.84 109.898z" fill="#56a478"/><path d="M1521.08 807.62l-.12-109.897 30.84 109.898z" fill="#6ab88c"/><path d="M1517.176 825.823l30.26-109.897 30.84 109.897z" fill="#4c9a6e"/><path d="M1547.555 825.823l-.118-109.897 30.838 109.897z" fill="#60ae82"/><path d="M1773.807 906.56l37.994-137.98 38.718 137.98z" fill="#4c9a6e"/><path d="M1811.948 906.56l-.147-137.98 38.718 137.98z" fill="#60ae82"/><path d="M2681.786 735.743l26.404-95.888 26.906 95.888z" fill="#4c9a6e"/><path d="M2708.292 735.743l-.102-95.888 26.906 95.888z" fill="#60ae82"/><path d="M2713.194 752.922l30.26-109.898 30.84 109.898z" fill="#56a478"/><path d="M2743.573 752.922l-.118-109.898 30.838 109.898z" fill="#6ab88c"/><path d="M1884.413 831.386l23.705-86.087 24.156 86.086z" fill="#56a478"/><path d="M1908.21 831.386l-.092-86.087 24.157 86.086z" fill="#6ab88c"/><path d="M3258.25 851.565l30.26-109.898 30.84 109.898z" fill="#429064"/><path d="M3288.628 851.565l-.117-109.898 30.84 109.898z" fill="#56a478"/><path d="M3993.057 799.998l30.262-95.005 30.836 95.005z" fill="#429064"/><path d="M4023.436 799.998l-.117-95.005 30.836 95.005z" fill="#56a478"/><path d="M4031.67 814.04l30.26-95.006 30.84 95.005z" fill="#429064"/><path d="M4062.05 814.04l-.12-95.006 30.84 95.005z" fill="#56a478"/><path d="M4107.725 818.72l30.26-95.005 30.84 95.005z" fill="#429064"/><path d="M4063.462 837.167l39.534-112.238 40.286 112.237zM4138.104 818.72l-.118-95.005 30.838 95.005z" fill="#56a478"/><path d="M4103.15 837.167l-.154-112.238 40.286 112.237z" fill="#6ab88c"/><path d="M3381.196 268.198c15.058 29.673 41.574 36.23 54.794 14.255 12.986 22.965 41.066 17.412 58.04-14.05-20.377 17.543-39.475 22.107-58.466-4.95-18.333 25.87-35.51 22.125-54.368 4.745z" fill="none" stroke-width=".784"/><path d="M1730.215 943.067l37.993-137.98 38.718 137.98z" fill="#4c9a6e"/><path d="M1768.356 943.067l-.148-137.98 38.718 137.98z" fill="#60ae82"/></g></svg>