<svg xmlns="http://www.w3.org/2000/svg" viewBox="0 0 722.521 709.17903" height="709.179" width="722.521"><path d="M563.874 455.21c-43.864 62.64-123.298 89.603-196.242 66.604-72.944-23-122.547-90.65-122.547-167.133s49.603-144.13 122.547-167.13c72.944-23 152.378 3.967 196.242 66.607l103.647-70.512C592.88 76.96 457.68 31.065 333.527 70.215 209.366 109.352 124.94 224.5 124.94 354.68s84.427 245.324 208.583 284.47c124.155 39.146 259.357-6.75 333.998-113.432z" fill-rule="evenodd" stroke="#000" stroke-width="10" stroke-linecap="round" stroke-linejoin="round"/><path d="M493.933 455.21c-43.864 62.64-123.298 89.603-196.242 66.604-72.94-23-122.543-90.65-122.543-167.133s49.603-144.13 122.547-167.13c72.945-23 152.38 3.967 196.243 66.607l103.648-70.512c-74.644-106.684-209.844-152.58-334-113.43C139.425 109.353 55 224.5 55 354.68s84.427 245.324 208.582 284.47c124.156 39.146 259.358-6.75 334-113.432z" fill="#fff" fill-rule="evenodd" stroke="#000" stroke-width="10" stroke-linecap="round" stroke-linejoin="round"/><path d="M308.348 654.164c11.697 3.974 101.014 7.72 143.91 2.333l-63.392-3.637zm0-599.15c11.697-3.973 101.014-7.717 143.91-2.33l-63.392 3.635z" fill-rule="evenodd"/></svg>