<svg xmlns="http://www.w3.org/2000/svg" width="434.542" height="501.341" viewBox="0 0 434.542 501.34101"><defs><clipPath id="b"><path d="M218.637 547.644c2.983 15.226 5.614 24.385 1.598 41.553 0 0 7.914 23.148 32.604 23.334 28.13.214 34.84-23.65 34.84-23.65-6.09-17.793-2.003-27.6 4.794-45.07z" fill="#ffe0bd" fill-rule="evenodd"/></clipPath><clipPath id="c"><path d="M230.995 638.288h51.533l17.517 21.02-42.38 47.24-44.752-47.465z" fill="#1fba60" fill-rule="evenodd"/></clipPath><clipPath id="d"><path d="M228.96 638.288h56.055l15.03 21.02-42.38 47.24-44.752-47.465z" fill="#1fba60" fill-rule="evenodd"/></clipPath><clipPath id="e"/><clipPath id="f"/><clipPath id="a"><circle cx="272.337" cy="575.498" r="203.768" fill="#86e2d5" stroke-width="56.688" stroke-linecap="round" stroke-linejoin="round"/></clipPath></defs><g transform="translate(0 -551.02)"><circle r="203.768" cy="835.094" cx="217.271" fill="#86e2d5"/><g transform="translate(-55.066 259.596)" clip-path="url(#a)" fill="#7cd8cb"><path d="M227.232 580.532s-46.33 1.64-86.007 27.87c-17.212 11.38-49.008 131.816-49.008 131.816l160.25 52.42 160.25-52.42s-21.813-108.855-39.882-128.777c-29.23-32.227-86.972-31.23-86.972-31.23z" fill-rule="evenodd"/><path d="M219.16 587.39c1.527 17.308 20.216 29.444 36.98 29.727 16.872.284 36.48-10.15 39.94-29.768 1.708-9.676-77.892-10.967-76.92.04z" fill-rule="evenodd"/><path d="M220.842 543.808c2.984 15.226 6.573 28.22 2.557 45.39 0 0 7.912 23.147 32.602 23.333 28.13.214 34.84-23.65 34.84-23.65-6.088-17.793-1.042-28.878 5.755-46.35z" fill-rule="evenodd"/><path d="M173.586 404.293c5.047 65.108 27.917 146.728 27.917 146.728s26.1 23.197 52.547 23.12c27.296-.08 59.78-29.93 59.78-29.93s26.125-73.168 34.245-139.96l-27.64-49.215c-47.62-12.59-75.144-23.254-114.095 1.3z" clip-path="url(#b)" transform="translate(3.164 1.28)" fill-rule="evenodd"/><path d="M173.586 396.94c5.047 65.11 28.82 142.21 28.82 142.21s29.266 27.262 53.452 27.186c27.297-.087 57.97-29.48 57.97-29.48s26.127-73.167 34.247-139.96l-27.64-49.214c-47.62-12.59-75.144-23.254-114.095 1.3z" fill-rule="evenodd"/><path d="M232.7 311.426c-39.27-15.95-119.06 17.33-48.585 136.808 5.677-44.478 2.54-58.425 30.047-70.322-11.774 12.535-12.433 29.537-5.114 49.865 52.524-8.367 76.553-17.45 96.532-56.258 0 0 27.62 19.44 32.184 76.99C397.202 292.774 279.45 273.18 232.7 311.426z" fill-rule="evenodd"/><path d="M183.116 435.452c-8.412-11.02-19.422-3.008-22.372 8.534-2.95 11.543 2.16 26.613 25.99 29.705l6.327-26.802zm153.16.452c15.016-18.88 44.04 33.41-5.877 39.143zm-123.286 9.064s9.042-5.877 21.7-3.616c12.657 2.26 14.465 5.876 14.465 5.876s-9.945-2.26-21.246-2.712c-11.304-.452-14.92.452-14.92.452zm88.15 0s-9.04-5.877-21.698-3.616c-12.658 2.26-14.466 5.876-14.466 5.876s9.945-2.26 21.246-2.712c11.302-.452 14.918.452 14.918.452zm-75.095 192.868h61.993l16.624 23.247-46.87 52.245-49.495-52.494z" fill-rule="evenodd"/><path d="M213.705 659.083h94.364l-50.18 53.115z" clip-path="url(#c)" transform="translate(-27.177 -68.085) scale(1.10596)" fill-rule="evenodd"/><path d="M228.96 638.514l15.133 20.57 14.025-21.022 13.28 21.02 13.617-20.794-33.904-13.56z" clip-path="url(#d)" transform="translate(-27.177 -68.085) scale(1.10596)" fill-rule="evenodd"/><path d="M242.555 660.963l-15.732 19.62h60.098l-14.14-19.62-14.316 19.62zm15.73 19.62l-15.023 17.146 28.634.174z" fill-rule="evenodd"/><path clip-path="url(#e)" d="M59.454 227.04h198.82v596.457H59.454z"/><path d="M230.317 518.948s3.677 14.11 26.445 14.014c25.556-.108 26.897-14.24 26.897-14.24-13.194 3.505-39.32 3.488-53.344.226z" fill-rule="evenodd"/><g fill-rule="evenodd"><path d="M264.087 458.427s2.92 22.987 6.568 27.366c3.65 4.378 37.582 5.108 41.23 1.824 3.65-3.284 11.677-35.028 8.393-38.312-3.284-3.284-54.366 3.284-55.826 5.108-1.46 1.825-.365 4.014-.365 4.014zm-11.297 0s-2.92 22.987-6.568 27.366c-3.65 4.378-37.582 5.108-41.23 1.824-3.65-3.284-11.677-35.028-8.393-38.312 3.282-3.284 54.364 3.284 55.824 5.108 1.46 1.825.364 4.014.364 4.014z"/><path d="M248.215 453.228s8.706 2.173 18.474.41c6.502-1.17.315 7.708.315 7.708-7.02-3.998-10.614-4.045-17.514-.365z"/></g><path d="M258.447 478.04l-8.03 23.8 9.925 6.003z" fill-rule="evenodd"/></g><circle cx="217.271" cy="835.094" r="190.931" fill="none" stroke="#049372" stroke-width="52.675" stroke-linecap="round" stroke-linejoin="round"/><path d="M187.51 836.93s-46.332 1.64-86.008 27.872C84.29 876.182 65.92 975.52 65.92 975.52l146.824 73.52 155.775-60.734s-17.34-100.543-35.41-120.466c-29.23-32.23-86.972-31.233-86.972-31.233z" fill="#33ce74" fill-rule="evenodd"/><path d="M179.436 843.79c1.527 17.307 20.216 29.443 36.982 29.726 16.87.284 36.48-10.15 39.94-29.768 1.707-9.673-77.893-10.965-76.922.04z" fill="#1fba60" fill-rule="evenodd"/><path d="M181.12 800.207c2.983 15.227 6.572 28.22 2.556 45.39 0 0 7.914 23.148 32.604 23.334 28.13.214 34.84-23.652 34.84-23.652-6.09-17.79-1.042-28.876 5.755-46.348z" fill="#ffe0bd" fill-rule="evenodd"/><path d="M173.586 404.293c5.047 65.108 27.917 146.728 27.917 146.728s26.1 23.197 52.547 23.12c27.296-.08 59.78-29.93 59.78-29.93s26.125-73.168 34.245-139.96l-27.64-49.215c-47.62-12.59-75.144-23.254-114.095 1.3z" clip-path="url(#b)" transform="translate(-36.56 257.678)" fill="#f7d6b3" fill-rule="evenodd"/><path d="M133.862 653.34c5.048 65.11 28.822 142.208 28.822 142.208s29.265 27.264 53.45 27.187c27.297-.087 57.972-29.48 57.972-29.48s26.126-73.167 34.246-139.96l-27.64-49.214c-47.62-12.587-75.145-23.252-114.095 1.304z" fill="#ffe0bd" fill-rule="evenodd"/><path d="M192.978 567.826c-39.27-15.95-119.062 17.33-48.586 136.807 5.676-44.477 2.54-58.424 30.047-70.32-11.776 12.534-12.435 29.535-5.117 49.863 52.525-8.367 76.554-17.448 96.533-56.257 0 0 27.62 19.437 32.184 76.99 59.44-155.738-58.312-175.33-105.062-137.085z" fill="#7f430d" fill-rule="evenodd"/><path d="M143.393 691.85c-8.412-11.02-19.422-3.006-22.372 8.536-2.95 11.542 2.163 26.612 25.99 29.704l6.33-26.804zm153.16.453c15.015-18.878 44.04 33.412-5.877 39.143z" fill="#ffe0bd" fill-rule="evenodd"/><path d="M173.268 701.367s9.04-5.876 21.698-3.616c12.657 2.26 14.465 5.88 14.465 5.88s-9.943-2.26-21.244-2.714c-11.3-.452-14.917.452-14.917.452zm88.15 0s-9.04-5.876-21.7-3.616c-12.66 2.26-14.466 5.88-14.466 5.88s9.945-2.26 21.246-2.714c11.3-.452 14.917.452 14.917.452z" fill="#7f430d" fill-rule="evenodd"/><path d="M186.322 894.236h61.993l16.623 23.247-46.87 52.244-49.494-52.494z" fill="#1fba60" fill-rule="evenodd"/><path d="M213.705 659.083h94.364l-50.18 53.115z" clip-path="url(#c)" transform="translate(-66.9 188.314) scale(1.10596)" fill="#15b056" fill-rule="evenodd"/><path d="M228.96 638.514l15.133 20.57 14.025-21.022 13.28 21.02 13.617-20.794-33.904-13.56z" clip-path="url(#d)" transform="translate(-66.9 188.314) scale(1.10596)" fill="#33c46a" fill-rule="evenodd"/><path d="M202.83 917.362l-15.73 19.62h60.097l-14.14-19.62-14.317 19.62z" fill="#0fa34d" fill-rule="evenodd"/><path d="M218.563 936.983l-15.025 17.145 28.635.177z" fill="#0e9c4a" fill-rule="evenodd"/><path clip-path="url(#f)" transform="translate(-39.723 256.4)" fill-opacity=".044" d="M59.454 227.04h198.82v596.457H59.454z"/><path d="M190.594 775.348s3.676 14.11 26.445 14.013c25.554-.106 26.894-14.237 26.894-14.237-13.19 3.504-39.318 3.487-53.34.226z" fill="#fafafa" fill-rule="evenodd"/><g fill-rule="evenodd"><path d="M224.364 714.826s2.92 22.987 6.568 27.366c3.65 4.378 37.582 5.108 41.23 1.824 3.65-3.284 11.677-35.028 8.393-38.31-3.284-3.285-54.367 3.282-55.826 5.107-1.46 1.824-.367 4.013-.367 4.013zm-11.298 0s-2.92 22.987-6.567 27.366c-3.65 4.378-37.584 5.108-41.233 1.824-3.65-3.284-11.676-35.028-8.392-38.31 3.284-3.285 54.366 3.282 55.825 5.107 1.46 1.824.366 4.013.366 4.013z" fill-opacity=".823"/><path d="M208.492 709.627s8.706 2.174 18.474.412c6.503-1.175.317 7.704.317 7.704-7.02-3.998-10.614-4.044-17.514-.364z" fill="#2b2620"/></g><path d="M218.724 734.438l-8.03 23.802 9.925 6.002z" fill="#ffe0bd" fill-rule="evenodd"/><path d="M408.202 835.094a190.93 190.93 0 0 1-95.466 165.35 190.93 190.93 0 0 1-190.93 0 190.93 190.93 0 0 1-95.466-165.35" fill="none" stroke="#049372" stroke-width="52.675" stroke-linecap="round" stroke-linejoin="round"/></g></svg>