<svg xmlns="http://www.w3.org/2000/svg" viewBox="0 0 426.65302 162.958" height="162.958" width="426.653"><defs><clipPath id="i"><path d="M4879.016 1152.36c-1940.41-905.278-3070.618 108.503-3263.193-204.195l1368.52 204.194z" fill="#5ed582" fill-rule="evenodd"/></clipPath><clipPath id="h"><path d="M2548.6 470.83l-370.077-346.667-357.397 327.768z" fill="#bdd2fb" fill-rule="evenodd"/></clipPath><clipPath id="g"><path d="M2187.01 478.363l244.315-262.478 415.06 249.762z" fill="#b3c8f1" fill-rule="evenodd"/></clipPath><clipPath id="f"><path d="M1146.15 385.858l200.37 5.137 632.82-637.516 191.783 172.553 90.35 15.413 585.26 413.585-1482.23 205.51z" fill="#a69ba1" fill-rule="evenodd"/></clipPath><clipPath id="e"><path d="M2630.507 268.86l184.958-141.286 113.03 51.378 71.927-113.03 105.324-41.102L3208.5-124.173l174.682 79.634 303.125 346.797-405.88 280.005z" fill="#9c919b" fill-rule="evenodd"/></clipPath><clipPath id="n"><path d="M2630.507 268.86l184.958-141.286 113.03 51.378 71.927-113.03 105.324-41.102L3208.5-124.173l174.682 79.634 303.125 346.797-405.88 280.005z" fill="#9c919b" fill-rule="evenodd"/></clipPath><clipPath id="o"><path d="M2630.507 268.86l184.958-141.286 113.03 51.378 71.927-113.03 105.324-41.102L3208.5-124.173l174.682 79.634 303.125 346.797-405.88 280.005z" fill="#9c919b" fill-rule="evenodd"/></clipPath><clipPath id="d"><path d="M1510.487 276.568L1248.463 78.766l-364.777 159.27-110.46 231.196 706.434 41.102z" fill="#9c9197" fill-rule="evenodd"/></clipPath><clipPath id="c"><path d="M3414.008 315.1l269.73-280.004 110.46 30.826 280.006 318.538z" fill="#9c9197" fill-rule="evenodd"/></clipPath><clipPath id="k"><path d="M3760.793 1152.36c168.71-416.457 1436.488-386.622 2309.26 18.164z" fill="#6ed99b" fill-rule="evenodd"/></clipPath><clipPath id="b"><path d="M4286.833 271.287l192.544-123.52 421.418 330.596-588.532-32.697z" fill="#b0a5ab" fill-rule="evenodd"/></clipPath><clipPath id="m"><path fill="#b7d8f0" stroke-width="10" d="M241.277-927.828h4877.04v1625.69H241.277z"/></clipPath><clipPath id="j"><path fill="#b7d8f0" stroke-width="10" d="M241.277-927.828h4877.04v1625.69H241.277z"/></clipPath><clipPath id="a"><path fill="#b7d8f0" stroke-width="10" d="M241.277-927.828h4877.04v1625.69H241.277z"/></clipPath><clipPath id="l"><path transform="matrix(1.09773 0 0 1.09773 -54.43 -67.643)" d="M3185.178 702.362l-3225.14 18.165c1253.934-595.85 2772.228-160.35 3225.14-18.165z" clip-path="url(#a)" fill="#74e394" fill-rule="evenodd"/></clipPath></defs><path d="M-2383.897-4183.544h2055.084v1875.264h-2055.084z"/><path fill="#b7d8f0" d="M8641.63 158.454h4877.04v-3845.29H8641.63z"/><path d="M-1391.89-2986.845c-73.497-14.318-122.347 11.873-175.74 49.537h370.35c-28.397-97.057-155.827-108.396-194.61-49.537zM-987.874-3056.353h207.584c-23.03-65.11-115.555-82.762-146.252-28.307-18.078-7.07-53.736-5.605-61.332 28.307zM-1579.414-3273.174h238.25c-2.698-42.6-47.222-77.672-87.28-51.896-34.074-41.062-105.266-17.03-101.433 28.307-20.08-17.112-48.1-3.578-49.537 23.59zM-1335.516-3812.33h351.477c-39.94-63.727-107.988-94.114-162.764-56.615-66.19-66.952-144.082-28.24-188.712 56.614z" fill="#ecf0f1" fill-rule="evenodd"/><path d="M12355.118-229.74l175.402-112.522 383.9 301.162-536.136-29.785z" fill="#b0a5ab" fill-rule="evenodd"/><path transform="translate(8449.936 -476.875) scale(.91097)" clip-path="url(#b)" d="M4468.48 133.236l90.82 181.646-50.86 116.253 475.912 54.493-352.393-381.455z" fill="#c4b9bf" fill-rule="evenodd"/><path d="M11560-189.826l245.715-255.078 100.627 28.082 255.077 290.18z" fill="#9c9197" fill-rule="evenodd"/><path transform="translate(8449.936 -476.875) scale(.91097)" clip-path="url(#c)" d="M3649.257.635l163.48 183.462-41.777 103.538 274.284 152.582L4016.18.635z" fill="#baafb5" fill-rule="evenodd"/><path d="M9825.946-224.93L9587.25-405.12l-332.302 145.09-100.626 210.613 643.542 37.442z" fill="#9c9197" fill-rule="evenodd"/><path d="M9684.78-316.782l105.322-77.066 172.114 84.773-143.856 113.03z" fill="#baafb5" fill-rule="evenodd"/><path d="M9748.355-227.776l41.747-166.072 172.114 84.773-143.856 113.03s-17.328 6.415-70.005-31.73z" fill="#c4b9bf" fill-rule="evenodd"/><path transform="translate(8449.936 -476.875) scale(.91097)" clip-path="url(#d)" d="M1246.088 71.477l50.86 125.335-159.847 58.127L1271.52 449.3l283.367-205.26L1275.15 42.413z" fill="#b0a5af" fill-rule="evenodd"/><path d="M10846.253-231.95l168.49-128.708 102.967 46.803 65.525-102.967 95.946-37.442 93.607-135.73 159.13 72.546 276.138 315.92L11438.31 53.55z" fill="#9c919b" fill-rule="evenodd"/><path transform="translate(8449.936 -476.875) scale(.91097)" clip-path="url(#e)" d="M3206.043-124.7L3309.58 15.167l69.026 330.594 408.702 5.45-490.443-552.2z" fill="#b0a5af" fill-rule="evenodd"/><path d="M9561.91-24.742l114.668-95.947 576.48-580.76 174.71 157.193 82.306 14.04 533.153 376.766L9692.96 33.76z" fill="#a69ba1" fill-rule="evenodd"/><path d="M10007.95-79.994l22.066-85.076 22.486 85.076z" fill="#4c9a6e" fill-rule="evenodd"/><path transform="translate(8449.936 -476.875) scale(.91097)" clip-path="url(#f)" d="M2104.363-65.666l233.414 400.53 428.683 127.15 263.386-225.24-862.816-401.436z" fill="#baafb5" fill-rule="evenodd"/><path d="M11848.102-43.183l260.61-206.72 365.966 237.142z" fill="#b3c8f1" fill-rule="evenodd"/><path d="M12113.71-13.93l-5-235.145L12474.68-12.76z" fill="#bdd2f1" fill-rule="evenodd"/><path d="M11967.45-70.094l314.75-243.962 311.826 274.384z" fill="#b3c8f1" fill-rule="evenodd"/><path d="M12336.024 5.96l-53.824-320.016 311.826 274.384z" fill="#bdd2f1" fill-rule="evenodd"/><path d="M11522.328-134.956l37.994-137.98 38.717 137.98z" fill="#4c9a6e" fill-rule="evenodd"/><path d="M12116.956-91.54l-267.948-222.315L11592.76-70.48z" fill="#bcd2fb" fill-rule="evenodd"/><path d="M12116.956-91.54l-267.948-222.315 36.273 234.016z" fill="#c7dcfb" fill-rule="evenodd"/><path d="M10442.24-41.1l222.563-239.11 366.524 267.24z" fill="#b3c8f1" fill-rule="evenodd"/><path transform="translate(8449.936 -476.875) scale(.91097)" clip-path="url(#g)" d="M2584.815 522.866l-153.49-306.98 391.446 282.457z" fill="#bdd2f1" fill-rule="evenodd"/><path d="M10771.636-47.96l-337.128-315.806-325.58 298.588z" fill="#bdd2fb" fill-rule="evenodd"/><path transform="translate(8449.936 -476.875) scale(.91097)" clip-path="url(#h)" d="M2178.523 124.163s100.05 383.602 118.033 378.464c17.982-5.137 238.904-97.616 238.904-97.616L2150.13 37.665z" fill="#c7dcfb" fill-rule="evenodd"/><path d="M11003.092-151.55l23.233-65.434 23.677 65.435zM11560.756-148.183l30.26-109.898 30.84 109.897z" fill="#56a478" fill-rule="evenodd"/><path d="M11560.47-134.956l-.148-137.98 38.717 137.98z" fill="#60ae82" fill-rule="evenodd"/><path d="M11600.34-133.786l30.26-109.897 30.838 109.897z" fill="#429064" fill-rule="evenodd"/><path d="M11591.135-148.183l-.118-109.898 30.838 109.897z" fill="#6ab88c" fill-rule="evenodd"/><path d="M11622.57-131.53l30.26-95.004 30.84 95.005z" fill="#429064" fill-rule="evenodd"/><path d="M11630.718-133.786l-.118-109.897 30.838 109.897z" fill="#56a478" fill-rule="evenodd"/><path d="M11652.95-131.53l-.12-95.004 30.84 95.005z" fill="#56a478" fill-rule="evenodd"/><path d="M12894.58 156.536C11126.922-668.148 10097.333 255.38 9921.903-29.48l1246.682 186.016z" fill="#5ed582" fill-rule="evenodd"/><path d="M10030.102-79.994l-.09-85.076 22.486 85.076z" fill="#60ae82" fill-rule="evenodd"/><path d="M11027.086-163.96l23.233-77.845 23.675 77.845z" fill="#56a478" fill-rule="evenodd"/><path d="M10980.382-149.35l30.26-61.91 30.84 61.91z" fill="#4c9a6e" fill-rule="evenodd"/><path d="M11025.323-151.55l1.002-65.434 23.677 65.435z" fill="#6ab88c" fill-rule="evenodd"/><path d="M11046.57-125.356l30.263-109.898 30.837 109.898z" fill="#4c9a6e" fill-rule="evenodd"/><path d="M11049.317-163.96l1.002-77.845 23.675 77.845z" fill="#6ab88c" fill-rule="evenodd"/><path d="M11076.95-125.356l-.117-109.898 30.837 109.898zM11010.76-149.35l-.117-61.91 30.838 61.91z" fill="#60ae82" fill-rule="evenodd"/><path d="M10027.842-88.184l22.066-85.077 22.486 85.076z" fill="#4c9a6e" fill-rule="evenodd"/><path d="M10049.993-88.184l-.09-85.077 22.486 85.076z" fill="#60ae82" fill-rule="evenodd"/><path d="M10053.502-106.177l22.066-72.1 22.486 72.1z" fill="#429064" fill-rule="evenodd"/><path transform="translate(8449.936 -893.232) scale(.91097)" clip-path="url(#i)" d="M3451.264 696.337c-372.167 52.992-529.91 250.05-595.797 417.785l-1322.38-163.48 1398.67-446.85z" fill="#56cb78" fill-rule="evenodd"/><path d="M11923.565-63.208l30.26-109.898 30.84 109.898z" fill="#56a478" fill-rule="evenodd"/><path transform="translate(8400.352 -539.404)" clip-path="url(#j)" d="M3207.49 685.815c153.69-379.38 1308.6-352.202 2103.67 16.547z" fill="#6ed99b" fill-rule="evenodd"/><path d="M11950.637-55.626l41.735-95.005 42.53 95.004z" fill="#429064" fill-rule="evenodd"/><path d="M11953.944-63.208l-.118-109.898 30.838 109.898z" fill="#6ab88c" fill-rule="evenodd"/><path d="M11992.535-55.626l-.163-95.005 42.53 95.004z" fill="#56a478" fill-rule="evenodd"/><path transform="translate(8181.868 -903.357) scale(.91097)" clip-path="url(#k)" d="M4666.17 795.778c-130.155 110.738-212.5 230.147-274.913 384.876l-747.76-14.662 487.51-505.837z" fill="#5dce95" fill-rule="evenodd"/><path d="M10075.654-106.177l-.09-72.1 22.486 72.1z" fill="#56a478" fill-rule="evenodd"/><path transform="translate(8400.352 -539.404)" clip-path="url(#a)" d="M3185.178 702.362l-3225.14 18.165c1253.934-595.85 2772.228-160.35 3225.14-18.165z" fill="#74e394" fill-rule="evenodd"/><path d="M10082.366-112.756l23.863-67.342 24.318 67.342z" fill="#4c9a6e" fill-rule="evenodd"/><path d="M10106.322-112.756l-.09-67.342 24.318 67.342z" fill="#60ae82" fill-rule="evenodd"/><path transform="translate(8460.016 -478.42) scale(.91097)" clip-path="url(#l)" d="M1788.822 88.385C790.01 441.685 472.464 916.855 201.926 1571.95c0 0-542.187-1351.063-521.452-1351.063 20.735 0 1981.652-280.935 1981.652-280.935z" fill="#6ed98b" fill-rule="evenodd"/><path d="M11555.88-118.872c29.785-16.548 274.686-190.296 274.686-190.296l62.88 28.13 102.594-91.01 506.35 335.913-693.336 84.39z" fill="none"/><path d="M10253.6-699.686l80.255 193.604 164.647 22.34z" fill="#baafb5" fill-rule="evenodd"/><path transform="translate(8400.352 -539.404)" clip-path="url(#m)" d="M6.56 702.362s539.358-145.048 1164.936-86.046c1661.575 156.71 2528.6-223.37 4143.465 86.046z" fill="#56ac78" fill-rule="evenodd"/><path transform="translate(8449.936 -476.875) scale(.91097)" clip-path="url(#n)" d="M3098.43 11.002l54.46 101.39-202.124-60.456z" fill="#b0a5af" fill-rule="evenodd"/><path transform="translate(8449.936 -476.875) scale(.91097)" clip-path="url(#o)" d="M2808.24 114.163l122.61 192.545-1.817-154.4z" fill="#b0a5af" fill-rule="evenodd"/><path d="M10246.05-84.642l23.233-65.435 23.676 65.435z" fill="#56a478" fill-rule="evenodd"/><path d="M10268.28-84.642l1.003-65.435 23.676 65.435z" fill="#6ab88c" fill-rule="evenodd"/><path d="M9494.2-75.282l30.262-109.898L9555.3-75.282z" fill="#429064" fill-rule="evenodd"/><path d="M9524.58-75.282l-.118-109.898L9555.3-75.282z" fill="#56a478" fill-rule="evenodd"/><path d="M9514.477-22.628l37.993-137.98 38.718 137.98z" fill="#4c9a6e" fill-rule="evenodd"/><path d="M9552.618-22.628l-.148-137.98 38.718 137.98z" fill="#60ae82" fill-rule="evenodd"/><path d="M10830.628-110.74l30.26-109.9 30.84 109.9z" fill="#56a478" fill-rule="evenodd"/><path d="M10861.007-110.74l-.118-109.9 30.837 109.9z" fill="#6ab88c" fill-rule="evenodd"/><path d="M10858.51-87.066l30.26-95.005 30.84 95.004z" fill="#429064" fill-rule="evenodd"/><path d="M10888.89-87.066l-.12-95.005 30.84 95.004z" fill="#56a478" fill-rule="evenodd"/><path d="M10109.162-101.64l22.066-85.077 22.486 85.077z" fill="#4c9a6e" fill-rule="evenodd"/><path d="M10131.314-101.64l-.09-85.077 22.486 85.077z" fill="#60ae82" fill-rule="evenodd"/><path d="M10132.328-81.783l30.262-109.898 30.838 109.897z" fill="#56a478" fill-rule="evenodd"/><path d="M10162.707-81.783l-.117-109.898 30.838 109.897z" fill="#6ab88c" fill-rule="evenodd"/><path d="M10158.804-63.58l30.262-109.9 30.837 109.9z" fill="#4c9a6e" fill-rule="evenodd"/><path d="M10189.183-63.58l-.117-109.9 30.837 109.9z" fill="#60ae82" fill-rule="evenodd"/><path d="M10415.435 17.154l37.994-137.98 38.717 137.98z" fill="#4c9a6e" fill-rule="evenodd"/><path d="M10453.577 17.154l-.148-137.98 38.717 137.98z" fill="#60ae82" fill-rule="evenodd"/><path d="M11323.415-153.66l26.403-95.89 26.907 95.89z" fill="#4c9a6e" fill-rule="evenodd"/><path d="M11349.92-153.66l-.102-95.89 26.907 95.89z" fill="#60ae82" fill-rule="evenodd"/><path d="M11354.822-136.483l30.262-109.898 30.837 109.897z" fill="#56a478" fill-rule="evenodd"/><path d="M11385.2-136.483l-.116-109.898 30.837 109.897z" fill="#6ab88c" fill-rule="evenodd"/><path d="M10526.042-58.018l23.705-86.087 24.156 86.087z" fill="#56a478" fill-rule="evenodd"/><path d="M10549.84-58.018l-.09-86.087 24.155 86.087z" fill="#6ab88c" fill-rule="evenodd"/><path d="M11899.878-37.84l30.26-109.897 30.84 109.898z" fill="#429064" fill-rule="evenodd"/><path d="M11930.257-37.84l-.118-109.897 30.837 109.898z" fill="#56a478" fill-rule="evenodd"/><path d="M12634.686-89.406l30.26-95.005 30.84 95.004z" fill="#429064" fill-rule="evenodd"/><path d="M12665.065-89.406l-.118-95.005 30.838 95.004z" fill="#56a478" fill-rule="evenodd"/><path d="M12673.3-75.365l30.26-95.005 30.838 95.005z" fill="#429064" fill-rule="evenodd"/><path d="M12703.678-75.365l-.118-95.005 30.838 95.005z" fill="#56a478" fill-rule="evenodd"/><path d="M12749.354-70.685l30.26-95.005 30.84 95.005z" fill="#429064" fill-rule="evenodd"/><path d="M12705.09-52.237l39.534-112.238 40.287 112.238zM12779.733-70.685l-.118-95.005 30.838 95.005z" fill="#56a478" fill-rule="evenodd"/><path d="M12744.778-52.237l-.154-112.238 40.287 112.238z" fill="#6ab88c" fill-rule="evenodd"/><path d="M12022.824-621.206c15.058 29.673 41.575 36.23 54.795 14.255 12.985 22.963 41.064 17.41 58.037-14.053-20.376 17.544-39.473 22.11-58.464-4.95-18.334 25.872-35.51 22.126-54.37 4.747z" fill="none"/><path d="M6157.78-634.466a7.266 1.816 0 0 1-7.264 1.817v-1.816z" fill="#79a1ff"/><path d="M-644.714-2682.293H-996.19c39.94-63.726 107.988-94.113 162.764-56.614 66.19-66.952 144.083-28.24 188.712 56.614zM-1156.167-3363.82h426.612c-20.13-118.935-129.885-75.786-129.727-75.783-12.976-123.097-237.316-113.01-199.93 12.442-34.302-25.454-98.84-6.406-96.955 63.34zM-1458.783-2635.19h-214.34c.194-44.867 63.713-57.076 76.29-39.962 24.69-61.408 125.104-26.1 138.05 39.962zM-2055.084-3731.426h472.278c-38.496-88.295-111.86-92.248-167.114-70.842-21.852-81.735-162.592-88.123-189.975 12.404-41.143-.357-103.355 15.786-115.19 58.438z" fill="#ecf0f1" fill-rule="evenodd"/><path d="M10371.843 53.663l37.994-137.98 38.718 137.98z" fill="#4c9a6e" fill-rule="evenodd"/><path d="M10409.985 53.663l-.148-137.98 38.718 137.98z" fill="#60ae82" fill-rule="evenodd"/><path d="M.04 162.958h426.613C406.52 44.024 296.768 87.174 296.926 87.178 283.95-35.923 59.61-25.836 96.996 99.617 62.694 74.165-1.844 93.214.04 162.958z" fill="#ecf0f1" fill-rule="evenodd"/></svg>